<?xml version="1.0" encoding="utf-8"?>
<!-- Generator: Adobe Illustrator 16.0.0, SVG Export Plug-In . SVG Version: 6.00 Build 0)  -->
<!DOCTYPE svg PUBLIC "-//W3C//DTD SVG 1.1//EN" "http://www.w3.org/Graphics/SVG/1.1/DTD/svg11.dtd" [
	<!ENTITY ns_extend "http://ns.adobe.com/Extensibility/1.0/">
	<!ENTITY ns_ai "http://ns.adobe.com/AdobeIllustrator/10.0/">
	<!ENTITY ns_graphs "http://ns.adobe.com/Graphs/1.0/">
	<!ENTITY ns_vars "http://ns.adobe.com/Variables/1.0/">
	<!ENTITY ns_imrep "http://ns.adobe.com/ImageReplacement/1.0/">
	<!ENTITY ns_sfw "http://ns.adobe.com/SaveForWeb/1.0/">
	<!ENTITY ns_custom "http://ns.adobe.com/GenericCustomNamespace/1.0/">
	<!ENTITY ns_adobe_xpath "http://ns.adobe.com/XPath/1.0/">
]>
<svg version="1.1" xmlns:x="&ns_extend;" xmlns:i="&ns_ai;" xmlns:graph="&ns_graphs;"
	 xmlns="http://www.w3.org/2000/svg" xmlns:xlink="http://www.w3.org/1999/xlink" x="0px" y="0px" width="964px" height="605px"
	 viewBox="0 0 964 605" style="enable-background:new 0 0 964 605;" xml:space="preserve">
<metadata>
	<sfw  xmlns="&ns_sfw;">
		<slices></slices>
		<sliceSourceBounds  height="16383" width="16383" bottomLeftOrigin="true" y="-8802" x="-6635"></sliceSourceBounds>
		<optimizationSettings>
			<targetSettings  targetSettingsID="0" fileFormat="PNG24Format">
				<PNG24Format  transparency="false" filtered="false" noMatteColor="false" matteColor="#FFFFFF" interlaced="false">
					</PNG24Format>
			</targetSettings>
		</optimizationSettings>
	</sfw>
</metadata>
<g id="Art">
	<linearGradient id="SVGID_1_" gradientUnits="userSpaceOnUse" x1="442.7544" y1="9.765625e-04" x2="442.7544" y2="624.0835">
		<stop  offset="0" style="stop-color:#1FA0A7"/>
		<stop  offset="0.9947" style="stop-color:#1FA0A7"/>
	</linearGradient>
	<polygon style="fill:url(#SVGID_1_);" points="-155.511,0.001 -148.421,624.083 1041.02,624.083 1033.93,0.001 	"/>
	<linearGradient id="SVGID_2_" gradientUnits="userSpaceOnUse" x1="967.1177" y1="-9.999" x2="967.1177" y2="341.7192">
		<stop  offset="0" style="stop-color:#17B4BC"/>
		<stop  offset="0.9947" style="stop-color:#17B4BC"/>
	</linearGradient>
	<circle style="fill:url(#SVGID_2_);" cx="967.118" cy="165.86" r="175.859"/>
	<linearGradient id="SVGID_3_" gradientUnits="userSpaceOnUse" x1="-67.8823" y1="-31.999" x2="-67.8823" y2="319.7192">
		<stop  offset="0" style="stop-color:#17B4BC"/>
		<stop  offset="0.9947" style="stop-color:#17B4BC"/>
	</linearGradient>
	<circle style="fill:url(#SVGID_3_);" cx="-67.882" cy="143.86" r="175.859"/>
	<linearGradient id="SVGID_4_" gradientUnits="userSpaceOnUse" x1="55.5" y1="197" x2="55.5" y2="631">
		<stop  offset="0" style="stop-color:#17B4BC"/>
		<stop  offset="0.9947" style="stop-color:#17B4BC"/>
	</linearGradient>
	<rect x="-30" y="197" style="fill:url(#SVGID_4_);" width="171" height="434"/>
	<linearGradient id="SVGID_5_" gradientUnits="userSpaceOnUse" x1="580" y1="181" x2="580" y2="615.0005">
		<stop  offset="0" style="stop-color:#17B4BC"/>
		<stop  offset="0.9947" style="stop-color:#17B4BC"/>
	</linearGradient>
	<rect x="322" y="181" style="fill:url(#SVGID_5_);" width="516" height="434"/>
	<linearGradient id="SVGID_6_" gradientUnits="userSpaceOnUse" x1="437.1138" y1="276.9141" x2="437.1138" y2="391.8828">
		<stop  offset="0" style="stop-color:#17B4BC"/>
		<stop  offset="0.9947" style="stop-color:#17B4BC"/>
	</linearGradient>
	<polygon style="fill:url(#SVGID_6_);" points="-161.151,276.914 -154.061,391.883 1035.379,391.883 1028.289,276.914 	"/>
	<linearGradient id="SVGID_7_" gradientUnits="userSpaceOnUse" x1="437.8657" y1="179.9141" x2="437.8657" y2="210.8276">
		<stop  offset="0" style="stop-color:#17B4BC"/>
		<stop  offset="0.9947" style="stop-color:#17B4BC"/>
	</linearGradient>
	<polygon style="fill:url(#SVGID_7_);" points="-160.399,179.914 -153.309,210.827 1036.131,210.827 1029.041,179.914 	"/>
	<linearGradient id="SVGID_8_" gradientUnits="userSpaceOnUse" x1="479.7632" y1="226.9141" x2="479.7632" y2="257.8271">
		<stop  offset="0" style="stop-color:#17B4BC"/>
		<stop  offset="0.9947" style="stop-color:#17B4BC"/>
	</linearGradient>
	<polygon style="fill:url(#SVGID_8_);" points="-118.501,226.914 -111.412,257.827 1078.028,257.827 1070.938,226.914 	"/>
	
		<linearGradient id="SVGID_9_" gradientUnits="userSpaceOnUse" x1="3422.6719" y1="305.709" x2="3804.7764" y2="305.709" gradientTransform="matrix(-1 0 0 1 3722.7637 0)">
		<stop  offset="0" style="stop-color:#FFFFFF"/>
		<stop  offset="1" style="stop-color:#FFFFFF;stop-opacity:0.5"/>
	</linearGradient>
	<path style="fill:url(#SVGID_9_);" d="M300.092,338.152h-42.226c-0.032-0.062-0.071-0.113-0.097-0.168
		c-0.035,0.055-0.078,0.106-0.119,0.168H-82.013c0.161-3.433,2.616-6.262,5.88-6.959c-0.123-0.875-0.207-1.764-0.207-2.664
		c0-6.12,2.916-11.545,7.427-15c2.487-21.459,20.71-38.125,42.843-38.125c6.013,0,11.735,1.23,16.944,3.462
		c4.734-3.504,10.579-5.6,16.916-5.6c15.017,0,27.304,11.612,28.415,26.351c3.704-5.57,10.03-9.245,17.222-9.245
		c10.795,0,19.64,8.279,20.577,18.833c5.509-3.778,12.171-5.997,19.354-5.997c9.052,0,17.282,3.53,23.405,9.269
		c2.109-0.908,4.44-1.418,6.895-1.418c1.421,0,2.793,0.184,4.117,0.504c5.448-8.051,14.664-13.344,25.114-13.344
		c2.066,0,4.088,0.213,6.035,0.604c2.642-11.367,12.808-19.848,24.985-19.848c14.06,0,25.473,11.312,25.646,25.334
		c6.72,2.593,12.139,7.799,14.971,14.396c3.19-6.229,9.655-10.501,17.135-10.501c7.191,0,13.449,3.949,16.75,9.788
		c3.391-5.045,9.155-8.357,15.685-8.357c10.443,0,18.904,8.454,18.904,18.895c0,0.846-0.081,1.686-0.188,2.509
		C296.747,331.125,299.905,334.238,300.092,338.152z"/>
	<linearGradient id="SVGID_10_" gradientUnits="userSpaceOnUse" x1="521.9961" y1="316.3447" x2="1336.7744" y2="316.3447">
		<stop  offset="0" style="stop-color:#FFFFFF;stop-opacity:0.5"/>
		<stop  offset="1" style="stop-color:#FFFFFF"/>
	</linearGradient>
	<path style="fill:url(#SVGID_10_);" d="M521.996,385.527h90.035c0.065-0.131,0.151-0.239,0.214-0.361
		c0.079,0.122,0.168,0.23,0.247,0.361h724.282c-0.353-7.323-5.586-13.357-12.541-14.843c0.255-1.863,0.442-3.755,0.442-5.687
		c0-13.043-6.224-24.604-15.847-31.976c-5.29-45.763-44.156-81.29-91.342-81.29c-12.828,0-25.037,2.621-36.139,7.377
		c-10.102-7.473-22.55-11.947-36.079-11.947c-32.024,0-58.214,24.772-60.582,56.197c-7.899-11.876-21.386-19.708-36.723-19.708
		c-23.021,0-41.885,17.648-43.891,40.153c-11.731-8.057-25.936-12.786-41.249-12.786c-19.309,0-36.853,7.517-49.907,19.757
		c-4.511-1.941-9.479-3.027-14.709-3.027c-3.032,0-5.961,0.396-8.779,1.081c-11.615-17.166-31.269-28.455-53.555-28.455
		c-4.408,0-8.709,0.453-12.868,1.288c-5.626-24.24-27.313-42.328-53.266-42.328c-29.996,0-54.323,24.123-54.699,54.026
		c-14.336,5.525-25.88,16.63-31.915,30.698c-6.803-13.283-20.594-22.392-36.544-22.392c-15.328,0-28.673,8.418-35.722,20.87
		c-7.229-10.762-19.512-17.823-33.453-17.823c-22.252,0-40.287,18.029-40.287,40.284c0,1.812,0.162,3.599,0.396,5.354
		C529.13,370.543,522.391,377.188,521.996,385.527z"/>
	<path style="fill:#F5FFFF;" d="M320.199,496.882h90.035c0.065-0.131,0.151-0.239,0.214-0.361c0.079,0.122,0.168,0.23,0.247,0.361
		h724.282c-0.353-7.323-5.586-13.357-12.541-14.843c0.255-1.863,0.442-3.755,0.442-5.687c0-13.043-6.224-24.604-15.847-31.976
		c-5.29-45.763-44.156-81.29-91.342-81.29c-12.828,0-25.037,2.621-36.139,7.377c-10.102-7.473-22.55-11.947-36.079-11.947
		c-32.024,0-58.214,24.772-60.582,56.197c-7.899-11.876-21.386-19.708-36.723-19.708c-23.021,0-41.885,17.648-43.891,40.153
		c-11.731-8.057-25.936-12.786-41.249-12.786c-19.309,0-36.853,7.517-49.907,19.757c-4.511-1.941-9.479-3.027-14.709-3.027
		c-3.032,0-5.961,0.396-8.779,1.081c-11.615-17.166-31.269-28.455-53.555-28.455c-4.408,0-8.709,0.453-12.868,1.288
		c-5.626-24.24-27.313-42.328-53.266-42.328c-29.996,0-54.323,24.123-54.699,54.026c-14.336,5.525-25.88,16.63-31.915,30.698
		c-6.803-13.283-20.594-22.392-36.544-22.392c-15.328,0-28.673,8.418-35.722,20.87c-7.229-10.762-19.512-17.823-33.453-17.823
		c-22.252,0-40.287,18.029-40.287,40.284c0,1.812,0.162,3.599,0.396,5.354C327.333,481.897,320.594,488.543,320.199,496.882z"/>
	<polygon style="fill:#4C3829;" points="905.532,472.48 886.13,472.48 865.229,450.09 884.634,450.09 	"/>
	<polygon style="fill:#4C3829;" points="957.778,469.496 938.376,469.496 917.476,447.109 936.878,447.109 	"/>
	<polygon style="fill:#4C3829;" points="868.212,432.178 859.257,432.178 838.356,409.791 847.308,409.791 	"/>
	<polygon style="fill:#4C3829;" points="968.974,427.699 960.019,427.699 939.122,405.309 948.067,405.309 	"/>
	<polygon style="fill:#4C3829;" points="783.872,470.99 774.921,470.99 754.017,448.604 762.97,448.604 	"/>
	<polygon style="fill:#4C3829;" points="824.175,388.891 815.224,388.891 794.323,366.504 803.271,366.504 	"/>
	<polygon style="fill:#4C3829;" points="761.478,387.398 752.519,387.398 731.618,365.004 740.573,365.004 	"/>
	<polygon style="fill:#4C3829;" points="812.217,434.67 792.818,434.67 780.871,425.713 800.277,425.713 	"/>
	<polygon style="fill:#674E3C;" points="700.003,459.473 707.2,452.312 650.688,395.535 643.485,402.703 	"/>
	<polygon style="fill:#674E3C;" points="658.41,336.228 782.59,336.228 984.092,528.792 849.475,545.21 658.41,370.563 	"/>
	<polyline style="fill:#674E3C;" points="486.742,554.171 559.881,554.171 706.178,410.872 667.361,364.591 486.742,531.784 	"/>
	<g>
		<defs>
			<polygon id="SVGID_11_" points="658.41,336.228 793.5,336.228 995.002,528.792 849.475,545.21 658.41,370.563 			"/>
		</defs>
		<clipPath id="SVGID_12_">
			<use xlink:href="#SVGID_11_"  style="overflow:visible;"/>
		</clipPath>
		
			<line style="clip-path:url(#SVGID_12_);fill:none;stroke:#4C3829;stroke-width:4.4782;stroke-miterlimit:10;" x1="711.688" y1="336.228" x2="911.726" y2="534.769"/>
		
			<line style="clip-path:url(#SVGID_12_);fill:none;stroke:#4C3829;stroke-width:4.4782;stroke-miterlimit:10;" x1="770.383" y1="336.228" x2="970.418" y2="534.769"/>
		
			<line style="clip-path:url(#SVGID_12_);fill:none;stroke:#4C3829;stroke-width:4.4782;stroke-miterlimit:10;" x1="658.41" y1="359.568" x2="1006.217" y2="359.568"/>
		
			<line style="clip-path:url(#SVGID_12_);fill:none;stroke:#4C3829;stroke-width:4.4782;stroke-miterlimit:10;" x1="683.783" y1="402.568" x2="1030.668" y2="402.568"/>
		
			<line style="clip-path:url(#SVGID_12_);fill:none;stroke:#4C3829;stroke-width:4.4782;stroke-miterlimit:10;" x1="740.51" y1="442.22" x2="1088.311" y2="442.22"/>
		
			<line style="clip-path:url(#SVGID_12_);fill:none;stroke:#4C3829;stroke-width:4.4782;stroke-miterlimit:10;" x1="762.9" y1="480.568" x2="1110.709" y2="480.568"/>
	</g>
	<polyline style="fill:none;stroke:#4C3829;stroke-width:34.3332;stroke-miterlimit:10;" points="476.291,542.231 658.41,360.112 
		840.52,542.231 	"/>
	<polygon style="fill:#4C3829;" points="635.446,472.48 616.044,472.48 595.144,450.09 614.548,450.09 	"/>
	<polygon style="fill:#4C3829;" points="687.692,469.496 668.29,469.496 647.39,447.109 666.792,447.109 	"/>
	<polygon style="fill:#4C3829;" points="654.101,388.141 634.704,388.141 613.798,365.75 633.204,365.75 	"/>
	<polygon style="fill:#4C3829;" points="533.94,432.178 514.538,432.178 493.634,409.791 513.04,409.791 	"/>
	<polygon style="fill:#4C3829;" points="427.578,393.534 408.176,393.534 387.271,371.147 406.678,371.147 	"/>
	<polygon style="fill:#4C3829;" points="598.126,432.178 589.171,432.178 568.271,409.791 577.222,409.791 	"/>
	<polygon style="fill:#4C3829;" points="934.559,516.106 925.611,516.106 904.711,493.72 913.666,493.72 	"/>
	<polygon style="fill:#4C3829;" points="698.888,427.699 689.933,427.699 669.036,405.309 677.981,405.309 	"/>
	<polygon style="fill:#4C3829;" points="513.786,470.99 504.835,470.99 483.931,448.604 492.884,448.604 	"/>
	<polygon style="fill:#4C3829;" points="554.089,388.891 545.138,388.891 524.237,366.504 533.185,366.504 	"/>
	<polygon style="fill:#4C3829;" points="491.392,387.398 482.433,387.398 461.532,365.004 470.487,365.004 	"/>
	<polygon style="fill:#4C3829;" points="983.074,500.435 963.676,500.435 951.729,491.478 971.135,491.478 	"/>
	<polygon style="fill:#4C3829;" points="529.462,494.128 510.063,494.128 498.116,485.171 517.522,485.171 	"/>
	<polygon style="fill:#674E3C;" points="429.917,459.473 437.114,452.312 380.603,395.535 373.399,402.703 	"/>
	<polygon style="fill:#674E3C;" points="795.811,509.22 803.012,502.056 786.705,485.685 779.506,492.845 	"/>
	<polygon style="fill:#674E3C;" points="390.1,336.228 660.278,336.228 861.78,528.792 581.163,545.21 390.1,370.563 	"/>
	<g>
		<defs>
			<polygon id="SVGID_13_" points="390.1,336.228 660.278,336.228 861.78,528.792 581.163,545.21 390.1,370.563 			"/>
		</defs>
		<clipPath id="SVGID_14_">
			<use xlink:href="#SVGID_13_"  style="overflow:visible;"/>
		</clipPath>
		
			<line style="clip-path:url(#SVGID_14_);fill:none;stroke:#4C3829;stroke-width:4.4782;stroke-miterlimit:10;" x1="445.379" y1="336.228" x2="645.416" y2="534.769"/>
		
			<line style="clip-path:url(#SVGID_14_);fill:none;stroke:#4C3829;stroke-width:4.4782;stroke-miterlimit:10;" x1="502.071" y1="336.228" x2="702.106" y2="534.769"/>
		
			<line style="clip-path:url(#SVGID_14_);fill:none;stroke:#4C3829;stroke-width:4.4782;stroke-miterlimit:10;" x1="560.28" y1="336.228" x2="760.308" y2="534.769"/>
		
			<line style="clip-path:url(#SVGID_14_);fill:none;stroke:#4C3829;stroke-width:4.4782;stroke-miterlimit:10;" x1="609.526" y1="336.228" x2="809.562" y2="534.769"/>
		
			<line style="clip-path:url(#SVGID_14_);fill:none;stroke:#4C3829;stroke-width:4.4782;stroke-miterlimit:10;" x1="390.1" y1="359.568" x2="737.905" y2="359.568"/>
		
			<line style="clip-path:url(#SVGID_14_);fill:none;stroke:#4C3829;stroke-width:4.4782;stroke-miterlimit:10;" x1="415.472" y1="402.568" x2="762.356" y2="402.568"/>
		
			<line style="clip-path:url(#SVGID_14_);fill:none;stroke:#4C3829;stroke-width:4.4782;stroke-miterlimit:10;" x1="472.198" y1="442.22" x2="819.999" y2="442.22"/>
		
			<line style="clip-path:url(#SVGID_14_);fill:none;stroke:#4C3829;stroke-width:4.4782;stroke-miterlimit:10;" x1="494.589" y1="480.568" x2="842.397" y2="480.568"/>
	</g>
	<polygon style="fill:#4C3829;" points="419.381,469.496 399.979,469.496 379.078,447.109 398.48,447.109 	"/>
	<polygon style="fill:#4C3829;" points="666.247,516.106 657.3,516.106 636.399,493.72 645.354,493.72 	"/>
	<polygon style="fill:#4C3829;" points="729.698,515.366 710.292,515.366 698.349,506.403 717.751,506.403 	"/>
	<polygon style="fill:#4C3829;" points="714.763,500.435 695.364,500.435 683.417,491.478 702.823,491.478 	"/>
	<polygon style="fill:#674E3C;" points="637.898,512.253 645.096,505.093 588.584,448.315 581.381,455.483 	"/>
	<polygon style="fill:#674E3C;" points="527.499,509.22 534.7,502.056 518.394,485.685 511.194,492.845 	"/>
	<path style="fill:none;stroke:#674E3C;stroke-width:24.879;stroke-miterlimit:10;" d="M914.049,356.269"/>
	<path style="fill:none;stroke:#674E3C;stroke-width:44.7822;stroke-miterlimit:10;" d="M620.128,503.536"/>
	<polygon style="fill:#674E3C;" points="120.014,336.228 390.193,336.228 591.694,528.792 311.078,545.21 120.014,370.563 	"/>
	<polygon style="fill:#4C3829;" points="479.764,502.671 460.361,502.671 439.461,480.284 458.863,480.284 	"/>
	<polygon style="fill:#4C3829;" points="396.162,516.106 387.215,516.106 366.314,493.72 375.27,493.72 	"/>
	<polygon style="fill:#4C3829;" points="459.612,515.366 440.206,515.366 428.263,506.403 447.665,506.403 	"/>
	<polygon style="fill:#4C3829;" points="444.677,500.435 425.278,500.435 413.331,491.478 432.737,491.478 	"/>
	
		<line style="fill:none;stroke:#4C3829;stroke-width:4.4782;stroke-miterlimit:10;" x1="394.785" y1="336.228" x2="592.82" y2="534.769"/>
	<path style="fill:none;stroke:#4C3829;stroke-width:4.4782;stroke-miterlimit:10;" d="M867.057,534.769"/>
	<path style="fill:none;stroke:#4C3829;stroke-width:4.4782;stroke-miterlimit:10;" d="M347.749,334.398"/>
	
		<line style="fill:none;stroke:#4C3829;stroke-width:4.4782;stroke-miterlimit:10;" x1="657.012" y1="336.228" x2="857.049" y2="534.769"/>
	<polyline style="fill:#674E3C;" points="-51.655,554.171 21.484,554.171 167.781,410.872 128.965,364.591 -51.655,531.784 	"/>
	<polygon style="fill:#E8E8E6;" points="302,661 -4,661 -4,552.84 145.588,406.791 302,527.001 	"/>
	<linearGradient id="SVGID_15_" gradientUnits="userSpaceOnUse" x1="33" y1="68" x2="33" y2="96">
		<stop  offset="0" style="stop-color:#17B4BC"/>
		<stop  offset="0.9947" style="stop-color:#17B4BC"/>
	</linearGradient>
	<rect x="-15" y="68" style="fill:url(#SVGID_15_);" width="96" height="28"/>
	<linearGradient id="SVGID_16_" gradientUnits="userSpaceOnUse" x1="145.5" y1="57" x2="145.5" y2="85">
		<stop  offset="0" style="stop-color:#17B4BC"/>
		<stop  offset="0.9947" style="stop-color:#17B4BC"/>
	</linearGradient>
	<rect x="20" y="57" style="fill:url(#SVGID_16_);" width="251" height="28"/>
	<linearGradient id="SVGID_17_" gradientUnits="userSpaceOnUse" x1="-8.5" y1="40" x2="-8.5" y2="68">
		<stop  offset="0" style="stop-color:#17B4BC"/>
		<stop  offset="0.9947" style="stop-color:#17B4BC"/>
	</linearGradient>
	<rect x="-134" y="40" style="fill:url(#SVGID_17_);" width="251" height="28"/>
	<linearGradient id="SVGID_18_" gradientUnits="userSpaceOnUse" x1="803.5" y1="75" x2="803.5" y2="115">
		<stop  offset="0" style="stop-color:#17B4BC"/>
		<stop  offset="0.9947" style="stop-color:#17B4BC"/>
	</linearGradient>
	<rect x="678" y="75" style="fill:url(#SVGID_18_);" width="251" height="40"/>
	<linearGradient id="SVGID_19_" gradientUnits="userSpaceOnUse" x1="386" y1="124" x2="386" y2="197.0005">
		<stop  offset="0" style="stop-color:#17B4BC"/>
		<stop  offset="0.9947" style="stop-color:#17B4BC"/>
	</linearGradient>
	<rect x="373" y="124" style="fill:url(#SVGID_19_);" width="26" height="73"/>
	<linearGradient id="SVGID_20_" gradientUnits="userSpaceOnUse" x1="296" y1="59" x2="296" y2="132">
		<stop  offset="0" style="stop-color:#17B4BC"/>
		<stop  offset="0.9947" style="stop-color:#17B4BC"/>
	</linearGradient>
	<rect x="283" y="59" style="fill:url(#SVGID_20_);" width="26" height="73"/>
	<linearGradient id="SVGID_21_" gradientUnits="userSpaceOnUse" x1="329.5" y1="9" x2="329.5" y2="75">
		<stop  offset="0" style="stop-color:#17B4BC"/>
		<stop  offset="0.9947" style="stop-color:#17B4BC"/>
	</linearGradient>
	<rect x="323" y="9" style="fill:url(#SVGID_21_);" width="13" height="66"/>
	<linearGradient id="SVGID_22_" gradientUnits="userSpaceOnUse" x1="342.5" y1="-5" x2="342.5" y2="61">
		<stop  offset="0" style="stop-color:#17B4BC"/>
		<stop  offset="0.9947" style="stop-color:#17B4BC"/>
	</linearGradient>
	<rect x="336" y="-5" style="fill:url(#SVGID_22_);" width="13" height="66"/>
	<linearGradient id="SVGID_23_" gradientUnits="userSpaceOnUse" x1="412.5" y1="125" x2="412.5" y2="140">
		<stop  offset="0" style="stop-color:#17B4BC"/>
		<stop  offset="0.9947" style="stop-color:#17B4BC"/>
	</linearGradient>
	<rect x="406" y="125" style="fill:url(#SVGID_23_);" width="13" height="15"/>
	<linearGradient id="SVGID_24_" gradientUnits="userSpaceOnUse" x1="355.5" y1="158" x2="355.5" y2="173">
		<stop  offset="0" style="stop-color:#17B4BC"/>
		<stop  offset="0.9947" style="stop-color:#17B4BC"/>
	</linearGradient>
	<rect x="349" y="158" style="fill:url(#SVGID_24_);" width="13" height="15"/>
	<linearGradient id="SVGID_25_" gradientUnits="userSpaceOnUse" x1="853.5" y1="48" x2="853.5" y2="88">
		<stop  offset="0" style="stop-color:#17B4BC"/>
		<stop  offset="0.9947" style="stop-color:#17B4BC"/>
	</linearGradient>
	<rect x="728" y="48" style="fill:url(#SVGID_25_);" width="251" height="40"/>
	<linearGradient id="SVGID_26_" gradientUnits="userSpaceOnUse" x1="633.5" y1="42" x2="633.5" y2="54">
		<stop  offset="0" style="stop-color:#17B4BC"/>
		<stop  offset="0.9947" style="stop-color:#17B4BC"/>
	</linearGradient>
	<rect x="629" y="42" style="fill:url(#SVGID_26_);" width="9" height="12"/>
	<linearGradient id="SVGID_27_" gradientUnits="userSpaceOnUse" x1="658.5" y1="42" x2="658.5" y2="75">
		<stop  offset="0" style="stop-color:#17B4BC"/>
		<stop  offset="0.9947" style="stop-color:#17B4BC"/>
	</linearGradient>
	<rect x="654" y="42" style="fill:url(#SVGID_27_);" width="9" height="33"/>
	<linearGradient id="SVGID_28_" gradientUnits="userSpaceOnUse" x1="836" y1="21" x2="836" y2="54">
		<stop  offset="0" style="stop-color:#17B4BC"/>
		<stop  offset="0.9947" style="stop-color:#17B4BC"/>
	</linearGradient>
	<rect x="769" y="21" style="fill:url(#SVGID_28_);" width="134" height="33"/>
	<linearGradient id="SVGID_29_" gradientUnits="userSpaceOnUse" x1="523" y1="0" x2="523" y2="28">
		<stop  offset="0" style="stop-color:#17B4BC"/>
		<stop  offset="0.9947" style="stop-color:#17B4BC"/>
	</linearGradient>
	<rect x="-73" style="fill:url(#SVGID_29_);" width="1192" height="28"/>
	<linearGradient id="SVGID_30_" gradientUnits="userSpaceOnUse" x1="120.5" y1="206" x2="120.5" y2="234">
		<stop  offset="0" style="stop-color:#17B4BC"/>
		<stop  offset="0.9947" style="stop-color:#17B4BC"/>
	</linearGradient>
	<rect x="-5" y="206" style="fill:url(#SVGID_30_);" width="251" height="28"/>
	<linearGradient id="SVGID_31_" gradientUnits="userSpaceOnUse" x1="366.5" y1="269" x2="366.5" y2="297">
		<stop  offset="0" style="stop-color:#17B4BC"/>
		<stop  offset="0.9947" style="stop-color:#17B4BC"/>
	</linearGradient>
	<rect x="241" y="269" style="fill:url(#SVGID_31_);" width="251" height="28"/>
	<linearGradient id="SVGID_32_" gradientUnits="userSpaceOnUse" x1="616" y1="156" x2="616" y2="167">
		<stop  offset="0" style="stop-color:#17B4BC"/>
		<stop  offset="0.9947" style="stop-color:#17B4BC"/>
	</linearGradient>
	<rect x="589" y="156" style="fill:url(#SVGID_32_);" width="54" height="11"/>
	<linearGradient id="SVGID_33_" gradientUnits="userSpaceOnUse" x1="615.5" y1="126" x2="615.5" y2="144">
		<stop  offset="0" style="stop-color:#17B4BC"/>
		<stop  offset="0.9947" style="stop-color:#17B4BC"/>
	</linearGradient>
	<rect x="610" y="126" style="fill:url(#SVGID_33_);" width="11" height="18"/>
	<linearGradient id="SVGID_34_" gradientUnits="userSpaceOnUse" x1="635.5" y1="117" x2="635.5" y2="135">
		<stop  offset="0" style="stop-color:#17B4BC"/>
		<stop  offset="0.9947" style="stop-color:#17B4BC"/>
	</linearGradient>
	<rect x="630" y="117" style="fill:url(#SVGID_34_);" width="11" height="18"/>
	<linearGradient id="SVGID_35_" gradientUnits="userSpaceOnUse" x1="643.9521" y1="156.001" x2="1126.8086" y2="156.001">
		<stop  offset="0" style="stop-color:#FFFFFF"/>
		<stop  offset="1" style="stop-color:#FFFFFF;stop-opacity:0.5"/>
	</linearGradient>
	<path style="fill:url(#SVGID_35_);" d="M643.952,197h53.356c0.039-0.077,0.09-0.142,0.127-0.214c0.047,0.072,0.1,0.137,0.146,0.214
		h429.227c-0.209-4.34-3.311-7.916-7.433-8.796c0.151-1.104,0.263-2.226,0.263-3.37c0-7.729-3.688-14.581-9.392-18.949
		c-3.135-27.12-26.168-48.175-54.131-48.175c-7.603,0-14.838,1.554-21.417,4.372c-5.986-4.429-13.363-7.08-21.381-7.08
		c-18.979,0-34.499,14.681-35.902,33.304c-4.682-7.038-12.674-11.68-21.763-11.68c-13.644,0-24.822,10.459-26.011,23.796
		c-6.952-4.774-15.37-7.577-24.445-7.577c-11.442,0-21.84,4.454-29.576,11.708c-2.673-1.15-5.617-1.794-8.717-1.794
		c-1.797,0-3.532,0.235-5.203,0.641c-6.883-10.173-18.53-16.863-31.737-16.863c-2.612,0-5.161,0.269-7.626,0.764
		c-3.334-14.365-16.187-25.085-31.566-25.085c-17.776,0-32.193,14.296-32.416,32.018c-8.496,3.274-15.337,9.855-18.914,18.192
		c-4.031-7.872-12.204-13.27-21.656-13.27c-9.084,0-16.992,4.988-21.17,12.368c-4.283-6.378-11.562-10.562-19.825-10.562
		c-13.187,0-23.875,10.685-23.875,23.873c0,1.074,0.097,2.133,0.235,3.173C648.18,188.12,644.186,192.059,643.952,197z"/>
	<linearGradient id="SVGID_36_" gradientUnits="userSpaceOnUse" x1="55.6934" y1="144.001" x2="274.0589" y2="144.001">
		<stop  offset="0" style="stop-color:#FFFFFF"/>
		<stop  offset="1" style="stop-color:#FFFFFF;stop-opacity:0.5"/>
	</linearGradient>
	<path style="fill:url(#SVGID_36_);" d="M-429.307,199h71.576c0.053-0.104,0.121-0.189,0.17-0.287
		c0.062,0.098,0.135,0.184,0.197,0.287h575.795c-0.281-5.822-4.441-10.619-9.971-11.799c0.203-1.482,0.352-2.986,0.352-4.521
		c0-10.369-4.947-19.561-12.598-25.42c-4.205-36.381-35.104-64.625-72.615-64.625c-10.199,0-19.904,2.084-28.73,5.865
		c-8.029-5.941-17.926-9.498-28.682-9.498c-25.459,0-46.279,19.693-48.162,44.676c-6.279-9.441-17.002-15.668-29.193-15.668
		c-18.303,0-33.299,14.031-34.893,31.922c-9.326-6.404-20.619-10.164-32.793-10.164c-15.35,0-29.297,5.975-39.676,15.705
		c-3.586-1.543-7.535-2.406-11.693-2.406c-2.41,0-4.738,0.316-6.98,0.859c-9.232-13.646-24.857-22.621-42.574-22.621
		c-3.504,0-6.924,0.359-10.23,1.023c-4.473-19.27-21.713-33.65-42.346-33.65c-23.846,0-43.186,19.178-43.484,42.951
		c-11.396,4.393-20.574,13.221-25.373,24.404c-5.408-10.561-16.371-17.801-29.051-17.801c-12.186,0-22.795,6.691-28.398,16.592
		c-5.746-8.557-15.512-14.17-26.596-14.17c-17.689,0-32.027,14.334-32.027,32.025c0,1.441,0.129,2.861,0.316,4.256
		C-423.635,187.088-428.994,192.371-429.307,199z"/>
	<polygon style="fill:#674E3C;" points="199.679,490.379 206.706,497.709 264.528,442.258 257.493,434.93 	"/>
	<polyline style="opacity:0.1;fill:#674E3C;" points="218.432,554.171 291.57,554.171 437.866,410.872 399.051,364.591 
		218.432,531.784 	"/>
	<polygon style="fill:#4C3829;" points="367.135,472.48 347.732,472.48 326.832,450.09 346.236,450.09 	"/>
	<polygon style="fill:#4C3829;" points="265.629,432.178 246.227,432.178 225.322,409.791 244.729,409.791 	"/>
	<polygon style="fill:#4C3829;" points="329.814,432.178 320.859,432.178 299.959,409.791 308.91,409.791 	"/>
	<polygon style="fill:#4C3829;" points="245.475,470.99 236.523,470.99 215.619,448.604 224.572,448.604 	"/>
	<polygon style="fill:#4C3829;" points="285.777,388.891 276.826,388.891 255.926,366.504 264.873,366.504 	"/>
	<polygon style="fill:#4C3829;" points="223.08,387.398 214.121,387.398 193.221,365.004 202.176,365.004 	"/>
	<g>
		<defs>
			<polygon id="SVGID_37_" points="120.014,336.228 390.193,336.228 591.694,528.792 311.078,545.21 120.014,370.563 			"/>
		</defs>
		<clipPath id="SVGID_38_">
			<use xlink:href="#SVGID_37_"  style="overflow:visible;"/>
		</clipPath>
		
			<line style="clip-path:url(#SVGID_38_);fill:none;stroke:#4C3829;stroke-width:4.4782;stroke-miterlimit:10;" x1="166.285" y1="336.228" x2="366.322" y2="534.769"/>
		
			<line style="clip-path:url(#SVGID_38_);fill:none;stroke:#4C3829;stroke-width:4.4782;stroke-miterlimit:10;" x1="231.986" y1="336.228" x2="432.021" y2="534.769"/>
		
			<line style="clip-path:url(#SVGID_38_);fill:none;stroke:#4C3829;stroke-width:4.4782;stroke-miterlimit:10;" x1="290.195" y1="336.228" x2="490.222" y2="534.769"/>
		
			<line style="clip-path:url(#SVGID_38_);fill:none;stroke:#4C3829;stroke-width:4.4782;stroke-miterlimit:10;" x1="339.441" y1="336.228" x2="539.476" y2="534.769"/>
		
			<line style="clip-path:url(#SVGID_38_);fill:none;stroke:#4C3829;stroke-width:4.4782;stroke-miterlimit:10;" x1="120.014" y1="359.568" x2="467.819" y2="359.568"/>
		
			<line style="clip-path:url(#SVGID_38_);fill:none;stroke:#4C3829;stroke-width:4.4782;stroke-miterlimit:10;" x1="145.387" y1="402.568" x2="492.271" y2="402.568"/>
		
			<line style="clip-path:url(#SVGID_38_);fill:none;stroke:#4C3829;stroke-width:4.4782;stroke-miterlimit:10;" x1="202.113" y1="442.22" x2="549.913" y2="442.22"/>
		
			<line style="clip-path:url(#SVGID_38_);fill:none;stroke:#4C3829;stroke-width:4.4782;stroke-miterlimit:10;" x1="224.504" y1="480.568" x2="572.312" y2="480.568"/>
	</g>
	<polyline style="fill:none;stroke:#4C3829;stroke-width:34.3332;stroke-miterlimit:10;" points="-62.106,542.231 120.014,360.112 
		302.123,542.231 	"/>
	<polygon style="fill:#4C3829;" points="115.703,388.141 96.307,388.141 75.401,365.75 94.807,365.75 	"/>
	<polygon style="fill:#4C3829;" points="288.209,403.071 268.807,403.071 247.902,380.685 267.309,380.685 	"/>
	<polygon style="fill:#4C3829;" points="59.729,432.178 50.774,432.178 29.874,409.791 38.825,409.791 	"/>
	<polygon style="fill:#4C3829;" points="160.49,427.699 151.535,427.699 130.639,405.309 139.584,405.309 	"/>
	<polygon style="fill:#EDEDEB;" points="218.428,595.196 209.473,595.196 188.576,572.806 197.521,572.806 	"/>
	<polygon style="fill:#4C3829;" points="268.055,441.884 259.104,441.884 238.199,419.497 247.152,419.497 	"/>
	<polygon style="fill:#4C3829;" points="303.135,382.341 294.184,382.341 273.283,359.954 282.23,359.954 	"/>
	<polygon style="fill:#4C3829;" points="233.361,369.714 224.402,369.714 203.502,347.319 212.457,347.319 	"/>
	<polygon style="fill:#674E3C;" points="184.186,430.366 191.383,423.206 134.871,366.429 127.668,373.597 	"/>
	<polygon style="fill:#674E3C;" points="257.414,509.22 264.615,502.056 248.309,485.685 241.109,492.845 	"/>
	<polygon style="fill:#674E3C;" points="60.839,403.663 67.859,410.991 101.604,378.642 94.564,371.312 	"/>
	<polygon style="fill:#674E3C;" points="32.773,430.972 39.812,438.302 55.32,423.421 48.292,416.093 	"/>
	<polyline style="fill:#4C3829;" points="288.141,553.84 1069.977,553.84 1069.977,526.963 305.665,526.963 	"/>
	<rect x="109" y="548" style="fill:#F4F3EF;" width="31" height="113"/>
	<rect x="134" y="490" style="fill:#F4F3EF;" width="31" height="171"/>
	<rect x="270" y="554" style="fill:#F4F3EF;" width="31" height="107"/>
	<rect x="238" y="571" style="fill:#F4F3EF;" width="15" height="26"/>
	<rect x="142" y="447" style="fill:#F4F3EF;" width="15" height="13"/>
	<polygon style="fill:#FFFFFF;" points="82,467.874 -4,551.84 -4,661 82,661 	"/>
	<polygon style="fill:#EDEDEB;" points="14.948,606.392 23.903,606.392 44.799,584.001 35.854,584.001 	"/>
	<rect x="45" y="511" style="fill:#F4F3EF;" width="15" height="51"/>
	<rect x="25" y="549" style="fill:#F4F3EF;" width="15" height="26"/>
	<polygon style="fill:#4C3829;" points="97.049,472.48 77.647,472.48 56.747,450.09 76.151,450.09 	"/>
	<rect x="301" y="554" style="fill:#EAEAE4;" width="663" height="107"/>
	<rect x="300" y="554" style="fill:#D3D3CF;" width="664" height="30"/>
	<rect x="300" y="554" style="fill:#D3D3CF;" width="664" height="15"/>
	<rect x="300" y="575" style="fill:#D3D3CF;" width="144" height="30"/>
	<rect x="702" y="569" style="fill:#D3D3CF;" width="262" height="28"/>
	<line style="fill:none;stroke:#2C934C;stroke-width:4;stroke-miterlimit:10;" x1="218" y1="189" x2="366" y2="189"/>
	<line style="fill:none;stroke:#2C934C;stroke-width:4;stroke-miterlimit:10;" x1="595" y1="189" x2="743" y2="189"/>
	<linearGradient id="SVGID_39_" gradientUnits="userSpaceOnUse" x1="918.5" y1="82" x2="918.5" y2="95">
		<stop  offset="0" style="stop-color:#1FA0A7"/>
		<stop  offset="0.9947" style="stop-color:#1FA0A7"/>
	</linearGradient>
	<rect x="867" y="82" style="fill:url(#SVGID_39_);" width="103" height="13"/>
	<linearGradient id="SVGID_40_" gradientUnits="userSpaceOnUse" x1="911.5" y1="242" x2="911.5" y2="254">
		<stop  offset="0" style="stop-color:#1FA0A7"/>
		<stop  offset="0.9947" style="stop-color:#1FA0A7"/>
	</linearGradient>
	<rect x="894" y="242" style="fill:url(#SVGID_40_);" width="35" height="12"/>
	<linearGradient id="SVGID_41_" gradientUnits="userSpaceOnUse" x1="875" y1="234" x2="875" y2="273">
		<stop  offset="0" style="stop-color:#1FA0A7"/>
		<stop  offset="0.9947" style="stop-color:#1FA0A7"/>
	</linearGradient>
	<rect x="865" y="234" style="fill:url(#SVGID_41_);" width="20" height="39"/>
	<linearGradient id="SVGID_42_" gradientUnits="userSpaceOnUse" x1="609.5" y1="227" x2="609.5" y2="283">
		<stop  offset="0" style="stop-color:#1FA0A7"/>
		<stop  offset="0.9947" style="stop-color:#1FA0A7"/>
	</linearGradient>
	<rect x="583" y="227" style="fill:url(#SVGID_42_);" width="53" height="56"/>
	<linearGradient id="SVGID_43_" gradientUnits="userSpaceOnUse" x1="636.5" y1="255" x2="636.5" y2="273">
		<stop  offset="0" style="stop-color:#1FA0A7"/>
		<stop  offset="0.9947" style="stop-color:#1FA0A7"/>
	</linearGradient>
	<rect x="616" y="255" style="fill:url(#SVGID_43_);" width="41" height="18"/>
	<linearGradient id="SVGID_44_" gradientUnits="userSpaceOnUse" x1="650.5" y1="227" x2="650.5" y2="242">
		<stop  offset="0" style="stop-color:#1FA0A7"/>
		<stop  offset="0.9947" style="stop-color:#1FA0A7"/>
	</linearGradient>
	<rect x="647" y="227" style="fill:url(#SVGID_44_);" width="7" height="15"/>
	<linearGradient id="SVGID_45_" gradientUnits="userSpaceOnUse" x1="702" y1="258" x2="702" y2="269">
		<stop  offset="0" style="stop-color:#1FA0A7"/>
		<stop  offset="0.9947" style="stop-color:#1FA0A7"/>
	</linearGradient>
	<rect x="698" y="258" style="fill:url(#SVGID_45_);" width="8" height="11"/>
	<linearGradient id="SVGID_46_" gradientUnits="userSpaceOnUse" x1="516" y1="264" x2="516" y2="269">
		<stop  offset="0" style="stop-color:#1FA0A7"/>
		<stop  offset="0.9947" style="stop-color:#1FA0A7"/>
	</linearGradient>
	<rect x="499" y="264" style="fill:url(#SVGID_46_);" width="34" height="5"/>
	<linearGradient id="SVGID_47_" gradientUnits="userSpaceOnUse" x1="374" y1="235" x2="374" y2="264">
		<stop  offset="0" style="stop-color:#1FA0A7"/>
		<stop  offset="0.9947" style="stop-color:#1FA0A7"/>
	</linearGradient>
	<rect x="362" y="235" style="fill:url(#SVGID_47_);" width="24" height="29"/>
	<linearGradient id="SVGID_48_" gradientUnits="userSpaceOnUse" x1="345" y1="250" x2="345" y2="254">
		<stop  offset="0" style="stop-color:#1FA0A7"/>
		<stop  offset="0.9947" style="stop-color:#1FA0A7"/>
	</linearGradient>
	<rect x="336" y="250" style="fill:url(#SVGID_48_);" width="18" height="4"/>
	<linearGradient id="SVGID_49_" gradientUnits="userSpaceOnUse" x1="264" y1="247" x2="264" y2="264">
		<stop  offset="0" style="stop-color:#1FA0A7"/>
		<stop  offset="0.9947" style="stop-color:#1FA0A7"/>
	</linearGradient>
	<rect x="245" y="247" style="fill:url(#SVGID_49_);" width="38" height="17"/>
	<linearGradient id="SVGID_50_" gradientUnits="userSpaceOnUse" x1="71.5" y1="227" x2="71.5" y2="258">
		<stop  offset="0" style="stop-color:#1FA0A7"/>
		<stop  offset="0.9947" style="stop-color:#1FA0A7"/>
	</linearGradient>
	<rect x="61" y="227" style="fill:url(#SVGID_50_);" width="21" height="31"/>
	<linearGradient id="SVGID_51_" gradientUnits="userSpaceOnUse" x1="84" y1="243" x2="84" y2="258">
		<stop  offset="0" style="stop-color:#1FA0A7"/>
		<stop  offset="0.9947" style="stop-color:#1FA0A7"/>
	</linearGradient>
	<rect x="71" y="243" style="fill:url(#SVGID_51_);" width="26" height="15"/>
	<linearGradient id="SVGID_52_" gradientUnits="userSpaceOnUse" x1="122" y1="235" x2="122" y2="248">
		<stop  offset="0" style="stop-color:#1FA0A7"/>
		<stop  offset="0.9947" style="stop-color:#1FA0A7"/>
	</linearGradient>
	<rect x="116" y="235" style="fill:url(#SVGID_52_);" width="12" height="13"/>
	<linearGradient id="SVGID_53_" gradientUnits="userSpaceOnUse" x1="114" y1="273" x2="114" y2="277">
		<stop  offset="0" style="stop-color:#1FA0A7"/>
		<stop  offset="0.9947" style="stop-color:#1FA0A7"/>
	</linearGradient>
	<rect x="108" y="273" style="fill:url(#SVGID_53_);" width="12" height="4"/>
	<linearGradient id="SVGID_54_" gradientUnits="userSpaceOnUse" x1="837" y1="14" x2="837" y2="42">
		<stop  offset="0" style="stop-color:#1FA0A7"/>
		<stop  offset="0.9947" style="stop-color:#1FA0A7"/>
	</linearGradient>
	<rect x="812" y="14" style="fill:url(#SVGID_54_);" width="50" height="28"/>
	<linearGradient id="SVGID_55_" gradientUnits="userSpaceOnUse" x1="798" y1="-10" x2="798" y2="21">
		<stop  offset="0" style="stop-color:#1FA0A7"/>
		<stop  offset="0.9947" style="stop-color:#1FA0A7"/>
	</linearGradient>
	<rect x="784" y="-10" style="fill:url(#SVGID_55_);" width="28" height="31"/>
	<linearGradient id="SVGID_56_" gradientUnits="userSpaceOnUse" x1="828" y1="-5" x2="828" y2="21">
		<stop  offset="0" style="stop-color:#1FA0A7"/>
		<stop  offset="0.9947" style="stop-color:#1FA0A7"/>
	</linearGradient>
	<rect x="820" y="-5" style="fill:url(#SVGID_56_);" width="16" height="26"/>
	<linearGradient id="SVGID_57_" gradientUnits="userSpaceOnUse" x1="15" y1="54" x2="15" y2="71">
		<stop  offset="0" style="stop-color:#1FA0A7"/>
		<stop  offset="0.9947" style="stop-color:#1FA0A7"/>
	</linearGradient>
	<rect x="-9" y="54" style="fill:url(#SVGID_57_);" width="48" height="17"/>
	<linearGradient id="SVGID_58_" gradientUnits="userSpaceOnUse" x1="1" y1="28" x2="1" y2="61">
		<stop  offset="0" style="stop-color:#1FA0A7"/>
		<stop  offset="0.9947" style="stop-color:#1FA0A7"/>
	</linearGradient>
	<rect x="-9" y="28" style="fill:url(#SVGID_58_);" width="20" height="33"/>
	<linearGradient id="SVGID_59_" gradientUnits="userSpaceOnUse" x1="18" y1="-10" x2="18" y2="6">
		<stop  offset="0" style="stop-color:#1FA0A7"/>
		<stop  offset="0.9947" style="stop-color:#1FA0A7"/>
	</linearGradient>
	<rect x="6" y="-10" style="fill:url(#SVGID_59_);" width="24" height="16"/>
	<linearGradient id="SVGID_60_" gradientUnits="userSpaceOnUse" x1="28.5" y1="28" x2="28.5" y2="38">
		<stop  offset="0" style="stop-color:#1FA0A7"/>
		<stop  offset="0.9947" style="stop-color:#1FA0A7"/>
	</linearGradient>
	<rect x="25" y="28" style="fill:url(#SVGID_60_);" width="7" height="10"/>
	<linearGradient id="SVGID_61_" gradientUnits="userSpaceOnUse" x1="858.5" y1="220" x2="858.5" y2="234">
		<stop  offset="0" style="stop-color:#1FA0A7"/>
		<stop  offset="0.9947" style="stop-color:#1FA0A7"/>
	</linearGradient>
	<rect x="824" y="220" style="fill:url(#SVGID_61_);" width="69" height="14"/>
	<linearGradient id="SVGID_62_" gradientUnits="userSpaceOnUse" x1="905.5" y1="115" x2="905.5" y2="124">
		<stop  offset="0" style="stop-color:#1FA0A7"/>
		<stop  offset="0.9947" style="stop-color:#1FA0A7"/>
	</linearGradient>
	<rect x="894" y="115" style="fill:url(#SVGID_62_);" width="23" height="9"/>
	<linearGradient id="SVGID_63_" gradientUnits="userSpaceOnUse" x1="932" y1="215" x2="932" y2="220">
		<stop  offset="0" style="stop-color:#1FA0A7"/>
		<stop  offset="0.9947" style="stop-color:#1FA0A7"/>
	</linearGradient>
	<rect x="929" y="215" style="fill:url(#SVGID_63_);" width="6" height="5"/>
	<linearGradient id="SVGID_64_" gradientUnits="userSpaceOnUse" x1="946.5" y1="250" x2="946.5" y2="264">
		<stop  offset="0" style="stop-color:#1FA0A7"/>
		<stop  offset="0.9947" style="stop-color:#1FA0A7"/>
	</linearGradient>
	<rect x="939" y="250" style="fill:url(#SVGID_64_);" width="15" height="14"/>
	<polygon style="fill:none;stroke:#E5C439;stroke-width:11;stroke-miterlimit:10;" points="786.5,60.5 173.5,60.5 173.5,161.5 
		335.5,161.5 335.5,223.5 625.5,223.5 625.5,161.5 786.5,161.5 	"/>
	<polygon style="fill:#CC4211;" points="706.977,368 683.976,336 669,336 669,255 753.977,255 	"/>
	<rect x="707" y="255" style="fill:#B53112;" width="62" height="124"/>
	<rect x="678" y="254" style="fill:#B53112;" width="10" height="27"/>
	<rect x="720" y="254" style="fill:#C63D22;" width="27" height="14"/>
	<rect x="725" y="283" style="fill:#C63D22;" width="8" height="24"/>
	<rect x="743" y="273" style="fill:#C63D22;" width="11" height="24"/>
	<rect x="720" y="334" style="fill:#C63D22;" width="13" height="7"/>
	<rect x="679" y="294" style="fill:#B53112;" width="19" height="12"/>
</g>
<g id="Layer_4">
	<polygon style="fill:#674E3C;" points="944.995,537.573 931.984,547.733 956.904,547.733 969.915,537.573 	"/>
	<polygon style="fill:#674E3C;" points="905.671,537.573 892.66,547.733 917.578,547.733 930.589,537.573 	"/>
	<polygon style="fill:#674E3C;" points="722.676,537.573 709.665,547.733 822.938,547.733 835.949,537.573 	"/>
	<polygon style="fill:#674E3C;" points="676.684,537.573 663.673,547.733 688.593,547.733 701.604,537.573 	"/>
	<polygon style="fill:#674E3C;" points="637.359,537.573 624.349,547.733 649.267,547.733 662.277,537.573 	"/>
	<polygon style="fill:#674E3C;" points="452.59,537.573 439.579,547.733 552.853,547.733 565.863,537.573 	"/>
	<polygon style="fill:#674E3C;" points="406.598,537.573 393.587,547.733 418.507,547.733 431.518,537.573 	"/>
	<polygon style="fill:#674E3C;" points="367.273,537.573 354.264,547.733 379.182,547.733 392.191,537.573 	"/>
</g>
<g id="Layer_3">
	<polygon style="fill:#FFCE00;" points="471.977,293.439 459.538,281.001 446.238,281.001 471.977,306.739 497.715,281.001 
		484.415,281.001 	"/>
	<rect x="30" y="595" style="fill:#FFFFFF;" width="52" height="28"/>
</g>
</svg>
