<svg version="1.1" xmlns:x="&amp;ns_extend;" xmlns:i="&amp;ns_ai;" xmlns:graph="&amp;ns_graphs;" xmlns="http://www.w3.org/2000/svg" xmlns:xlink="http://www.w3.org/1999/xlink" x="0px" y="0px" width="964.001px" height="550px" viewBox="0 0 964.001 550" style="enable-background:new 0 0 964.001 550;" xml:space="preserve">
								

									

									
								
								
								<g id="sketchbook">
									<g>
										<g>
											<path style="fill:none;stroke:#FFFFFF;stroke-width:5.5;stroke-linejoin:round;stroke-miterlimit:10;" d="M652.915,296.865
												L652.915,296.865l-21.459-27.783l0.098-0.224l-4.129-3.346c-0.143,0.313-0.27,0.49-0.445,0.618
												c0.166-0.129,0.336-0.339,0.471-0.636l-1.91-1.511l0.898,2.321c0.012-0.001,0.023-0.007,0.035-0.008l1.586,4.572l-0.012,0.187
												l21.777,28.195l0,0l1.432,1.855l3.09-2.388L652.915,296.865z"></path>
											<g>
												<g>
													<path style="fill:none;stroke:#FFFFFF;stroke-width:5.5;stroke-linejoin:round;stroke-miterlimit:10;" d="M654.407,298.674
														l-1.432-1.855l0.023-0.019l-1.91-2.472l0,0l-19.551-25.315l-0.035-0.117l-4.195-3.293c-0.143,0.314-0.305,0.518-0.48,0.644
														c0.166-0.127,0.318-0.324,0.455-0.623l-1.918-1.504l0.895,2.325c0.012,0,0.021-0.005,0.031-0.005l1.721,4.467l0.119,0.084
														l19.393,25.106l0,0l2.387,3.091l0.025-0.02l1.432,1.854L654.407,298.674z"></path>
												</g>
											</g>
											<g>
												<path style="fill:#4C3829;" d="M627.282,265.623l-1.918-1.504l0.895,2.325C626.655,266.433,627.003,266.236,627.282,265.623z"></path>
												<path style="fill:#DDD5BB;" d="M633.233,274.553l-1.73-5.657l-4.195-3.293c-0.277,0.613-0.625,0.811-1.023,0.821l1.727,4.482
													L633.233,274.553z"></path>
												
													<rect x="649.772" y="296.351" transform="matrix(-0.7914 0.6112 -0.6112 -0.7914 1349.8069 136.0484)" style="fill:#E87425;" width="3.842" height="3.904"></rect>
												<g>
													<polygon style="fill:#C5AD3C;" points="630.456,270.166 649.854,295.282 651.089,294.328 631.491,268.951 630.753,269.002 
																			"></polygon>
													<polygon style="fill:#C5AD3C;" points="628.097,270.947 647.999,296.715 648.618,296.237 629.321,271.25 					"></polygon>
													<polygon style="fill:#E5C845;" points="649.183,295.802 649.704,295.399 649.854,295.282 630.456,270.166 630.45,270.586 
														630.392,271.257 630.085,271.283 629.321,271.25 648.618,296.237 					"></polygon>
												</g>
												
													<rect x="648.309" y="294.496" transform="matrix(-0.7915 0.6111 -0.6111 -0.7915 1346.1265 133.6859)" style="fill:#BFCFC9;" width="3.904" height="3.904"></rect>
											</g>
										</g>
										<g>
											<path style="fill:none;stroke:#FFFFFF;stroke-width:5.5;stroke-linejoin:round;stroke-miterlimit:10;" d="M613.499,290.175
												L613.499,290.175l23.883,25.729l-0.076,0.231l4.414,2.958c0.111-0.326,0.223-0.512,0.389-0.655
												c-0.154,0.143-0.305,0.366-0.412,0.677l2.039,1.33l-1.105-2.23c-0.012,0.002-0.023,0.01-0.035,0.012l-1.992-4.408l-0.006-0.188
												l-24.234-26.112l0,0l-1.596-1.718l-2.861,2.657L613.499,290.175z"></path>
											<g>
												<g>
													<path style="fill:none;stroke:#FFFFFF;stroke-width:5.5;stroke-linejoin:round;stroke-miterlimit:10;" d="M643.897,320.295
														l-1.102-2.233c-0.01,0.001-0.021,0.007-0.031,0.009l-2.117-4.296l-0.127-0.073l-21.58-23.25l0,0l-2.656-2.862l-0.023,0.021
														l-1.596-1.717l-2.814,2.613l1.594,1.718l-0.023,0.021l2.125,2.29l0,0l21.756,23.439l0.049,0.118l4.477,2.9
														c0.113-0.325,0.256-0.541,0.42-0.684c-0.154,0.143-0.287,0.352-0.395,0.661L643.897,320.295z"></path>
												</g>
											</g>
											<g>
												<path style="fill:#4C3829;" d="M641.853,318.972l2.045,1.323l-1.102-2.233C642.401,318.107,642.073,318.335,641.853,318.972z"></path>
												<path style="fill:#DDD5BB;" d="M635.116,310.616l2.234,5.478l4.477,2.9c0.223-0.635,0.551-0.864,0.943-0.91l-2.123-4.31
													L635.116,310.616z"></path>
												
													<rect x="612.665" y="286.678" transform="matrix(0.7328 -0.6805 0.6805 0.7328 -32.1776 495.3204)" style="fill:#E87425;" width="3.843" height="3.906"></rect>
												<g>
													<polygon style="fill:#C5AD3C;" points="638.28,314.733 616.69,291.473 615.546,292.536 637.358,316.037 638.091,315.92 					
														"></polygon>
													<polygon style="fill:#C5AD3C;" points="640.558,313.741 618.409,289.879 617.837,290.411 639.313,313.551 					"></polygon>
													<polygon style="fill:#E5C845;" points="617.313,290.896 616.831,291.344 616.69,291.473 638.28,314.733 638.247,314.314 
														638.245,313.641 638.548,313.587 639.313,313.551 617.837,290.411 					"></polygon>
												</g>
												
													<rect x="614.228" y="288.396" transform="matrix(0.733 -0.6802 0.6802 0.733 -32.98 496.6769)" style="fill:#BFCFC9;" width="3.906" height="3.905"></rect>
											</g>
										</g>
										<g>
											<path style="fill:none;stroke:#FFFFFF;stroke-width:5.5;stroke-linejoin:round;stroke-miterlimit:10;" d="M648.978,309.248
												L648.978,309.248l-20.51-28.493l0.105-0.22l-4.014-3.48c-0.154,0.307-0.287,0.479-0.467,0.601c0.17-0.122,0.346-0.327,0.492-0.62
												l-1.857-1.574l0.818,2.35c0.012,0.001,0.025-0.005,0.035-0.005l1.432,4.622l-0.018,0.187l20.814,28.915l0,0l1.367,1.9l3.17-2.281
												L648.978,309.248z"></path>
											<g>
												<g>
													<path style="fill:none;stroke:#FFFFFF;stroke-width:5.5;stroke-linejoin:round;stroke-miterlimit:10;" d="M650.407,311.105
														l-1.369-1.903l0.025-0.019l-1.824-2.534l0,0l-18.684-25.957l-0.033-0.12l-4.084-3.432c-0.152,0.309-0.32,0.506-0.502,0.626
														c0.17-0.122,0.33-0.314,0.475-0.608l-1.865-1.568l0.816,2.354c0.012,0,0.021-0.004,0.033-0.005l1.568,4.523l0.115,0.087
														l18.99,26.381v-0.001l1.826,2.537l0.025-0.018l1.367,1.9L650.407,311.105z"></path>
												</g>
											</g>
											<g>
												<path style="fill:#4C3829;" d="M624.411,277.158l-1.865-1.568l0.816,2.354C623.759,277.947,624.114,277.761,624.411,277.158z"></path>
												<path style="fill:#DDD5BB;" d="M630.06,286.284l-1.537-5.712l-4.084-3.432c-0.297,0.602-0.652,0.787-1.049,0.783l1.574,4.539
													L630.06,286.284z"></path>
												
													<rect x="645.786" y="308.69" transform="matrix(-0.8117 0.584 -0.584 -0.8117 1354.8972 184.5265)" style="fill:#E87425;" width="3.843" height="3.905"></rect>
												<g>
													<polygon style="fill:#C5AD3C;" points="627.431,281.806 645.972,307.562 647.239,306.649 628.507,280.626 627.767,280.653 
																			"></polygon>
													<polygon style="fill:#C5AD3C;" points="625.05,282.508 644.069,308.931 644.704,308.475 626.259,282.851 					"></polygon>
													<polygon style="fill:#E5C845;" points="645.282,308.059 645.815,307.674 645.972,307.562 627.431,281.806 627.411,282.225 
														627.329,282.893 627.022,282.91 626.259,282.851 644.704,308.475 					"></polygon>
												</g>
												
													<rect x="644.387" y="306.788" transform="matrix(-0.8115 0.5844 -0.5844 -0.8115 1351.2552 181.5889)" style="fill:#BFCFC9;" width="3.904" height="3.904"></rect>
											</g>
										</g>
										<g>
											<path style="fill:none;stroke:#FFFFFF;stroke-width:6;stroke-linejoin:round;stroke-miterlimit:10;" d="M694.335,287.612
												c0.857-0.081,0.805-0.5,0.939-0.879c0.652-1.856-0.508-3.955-2.363-4.608c-0.176-0.062,0.027,0.04-0.719-0.193l-0.172,0.49
												l-33.467-11.767c-0.006-0.002-0.008-0.003-0.012-0.004c-1.684-0.592-3.322-0.341-4.346,1.783l-0.789-0.277l-11.541,32.823
												l-3.486,9.912l0.9,0.316l-0.27-0.479l0.104,0.433l-0.516,1.463l1.338,0.471l-0.398-0.782l-0.461,1.309l1.209,0.425l0.35,0.759
												l3.869,1.553l30.418,10.694l3.367-9.579l3.684,1.295L694.335,287.612z"></path>
											<g>
												<polyline style="fill:#B6A464;" points="688.409,284.214 690.612,287.348 675.204,328.037 640.448,318.613 638.8,314.766 				
													"></polyline>
												<path style="fill:#B6A464;" d="M658.093,270.189c0.004,0.001,0.006,0.002,0.012,0.004l34.203,12.025l-2.332,6.632
													l-32.873-11.559c-0.41-0.144-0.963-0.021-1.439-0.189c-1.855-0.652-2.797-2.782-2.145-4.638
													C654.171,270.608,656.237,269.537,658.093,270.189z"></path>
												
													<rect x="670.396" y="282.27" transform="matrix(-0.9434 -0.3317 0.3317 -0.9434 1221.0979 811.2031)" style="fill:#4C3829;" width="18.745" height="38.271"></rect>
												<circle style="fill:#4C3829;" cx="691.575" cy="285.955" r="3.563"></circle>
												
													<rect x="647.183" y="279.985" transform="matrix(-0.9434 -0.3317 0.3317 -0.9434 1192.8896 809.6449)" style="fill:#B6A464;" width="36.709" height="46.082"></rect>
												<polyline style="fill:none;stroke:#DDD5BB;stroke-width:0.5;stroke-miterlimit:10;" points="689.39,286.989 674.493,329.355 
													639.495,317.051 				"></polyline>
												<polyline style="fill:none;stroke:#DDD5BB;stroke-width:0.5;stroke-miterlimit:10;" points="688.688,286.63 674.017,328.359 
													639.017,316.055 				"></polyline>
												<polygon style="fill:#DDD5BB;" points="653.694,271.954 688.325,284.131 673.3,326.867 648.013,317.976 641.896,305.513 				"></polygon>
												<polygon style="fill:#4C3829;" points="641.896,305.513 647.478,317.787 638.669,314.69 				"></polygon>
												<polygon style="fill:#B6A464;" points="647.419,317.698 641.745,305.583 650.585,308.691 				"></polygon>
											</g>
										</g>
									</g>
								</g>
								<g id="soccer_ball">
									<g>
										<g>
											<circle style="fill:none;stroke:#FFFFFF;stroke-width:5.5;stroke-miterlimit:10;" cx="574" cy="379.889" r="26.847"></circle>
											<path style="fill:none;stroke:#FFFFFF;stroke-width:6;stroke-miterlimit:10;" d="M595.302,391.209l0.033,0.063
												c1.812-3.392,2.844-7.268,2.844-11.384c0-0.406-0.012-0.811-0.031-1.211l-10.018-5.104l1.869-11.809
												c-1.918-1.697-4.109-3.094-6.502-4.117l-9.496,6.902l-9.5-6.902c-2.393,1.025-4.592,2.427-6.514,4.128l1.865,11.798l-10,5.096
												c-0.02,0.405-0.029,0.81-0.029,1.219c0,4.111,1.025,7.981,2.836,11.37l0.025-0.05l12.152,1.924l1.537,9.707
												c2.398,0.796,4.961,1.227,7.627,1.227c2.658,0,5.215-0.429,7.609-1.222l1.537-9.712L595.302,391.209z M567.847,389.069
												l-3.801-11.559l9.955-7.16l9.953,7.124l-3.801,11.595H567.847z"></path>
											<g>
												<defs>
													<path id="SVGID_9_" d="M595.302,391.209l0.033,0.063c1.812-3.392,2.844-7.268,2.844-11.384c0-0.406-0.012-0.811-0.031-1.211
														l-10.018-5.104l1.869-11.809c-1.918-1.697-4.109-3.094-6.502-4.117l-9.496,6.902l-9.5-6.902
														c-2.393,1.025-4.592,2.427-6.514,4.128l1.865,11.798l-10,5.096c-0.02,0.405-0.029,0.81-0.029,1.219
														c0,4.111,1.025,7.981,2.836,11.37l0.025-0.05l12.152,1.924l1.537,9.707c2.398,0.796,4.961,1.227,7.627,1.227
														c2.658,0,5.215-0.429,7.609-1.222l1.537-9.712L595.302,391.209z M567.847,389.069l-3.801-11.559l9.955-7.16l9.953,7.124
														l-3.801,11.595H567.847z"></path>
												</defs>
												<clipPath id="SVGID_10_">
													<use xlink:href="#SVGID_9_" style="overflow:visible;"></use>
												</clipPath>
												<g style="clip-path:url(#SVGID_10_);">
													<path style="fill:none;stroke:#FFFFFF;stroke-width:6;stroke-miterlimit:10;" d="M608.136,384.068
														c0-2.626-2.131-4.999-4.754-4.999h-12.969c-2.627,0-4.756,2.373-4.756,4.999l0,0c0,2.625,2.129,5.001,4.756,5.001h12.969
														C606.005,389.069,608.136,386.693,608.136,384.068L608.136,384.068z"></path>
													<path style="fill:none;stroke:#FFFFFF;stroke-width:6;stroke-miterlimit:10;" d="M607.317,390.851
														c0-2.088-1.693-3.781-3.781-3.781h-27.436c-2.09,0-3.783,1.693-3.783,3.781v0.438c0,2.088,1.693,3.781,3.783,3.781h27.436
														c2.088,0,3.781-1.693,3.781-3.781V390.851z"></path>
													<path style="fill:none;stroke:#FFFFFF;stroke-width:6;stroke-miterlimit:10;" d="M597.317,400.259
														c0-3.418-2.77-6.189-6.188-6.189h-37.623c-3.418,0-6.189,2.771-6.189,6.189v6.621c0,3.418,2.771,6.189,6.189,6.189h37.623
														c3.418,0,6.188-2.771,6.188-6.189V400.259z"></path>
													<path style="fill:none;stroke:#FFFFFF;stroke-width:6;stroke-miterlimit:10;" d="M610.317,376.748
														c0-3.418-2.832-6.679-6.248-6.679h-4.367c-3.418,0-6.385,3.261-6.385,6.679v3.248c0,3.418,2.967,6.073,6.385,6.073h4.367
														c3.416,0,6.248-2.655,6.248-6.073V376.748z"></path>
												</g>
												<use xlink:href="#SVGID_9_" style="overflow:visible;fill:none;stroke:#FFFFFF;stroke-width:6;stroke-miterlimit:10;"></use>
											</g>
											<polygon style="fill:none;stroke:#FFFFFF;stroke-width:6;stroke-miterlimit:10;" points="574.001,370.423 564.046,377.511 
												567.847,389.069 580.153,389.069 583.954,377.511 			"></polygon>
											<path style="fill:none;stroke:#FFFFFF;stroke-width:5.5;stroke-miterlimit:10;" d="M583.497,357.648
												c-2.914-1.245-6.125-1.938-9.496-1.938c-3.375,0-6.584,0.692-9.5,1.938l9.5,6.902L583.497,357.648z"></path>
											<path style="fill:none;stroke:#FFFFFF;stroke-width:5.5;stroke-miterlimit:10;" d="M552.685,391.209l-0.025,0.05
												c2.895,5.424,7.799,9.614,13.715,11.581l-1.537-9.707L552.685,391.209z"></path>
											<path style="fill:none;stroke:#FFFFFF;stroke-width:5.5;stroke-miterlimit:10;" d="M557.987,361.776
												c-4.723,4.179-7.801,10.176-8.135,16.894l10-5.096L557.987,361.776z"></path>
											<path style="fill:none;stroke:#FFFFFF;stroke-width:5.5;stroke-miterlimit:10;" d="M595.335,391.272l-0.033-0.063l-12.154,1.924
												l-1.537,9.712C587.528,400.883,592.433,396.694,595.335,391.272z"></path>
											<path style="fill:none;stroke:#FFFFFF;stroke-width:5.5;stroke-miterlimit:10;" d="M598.147,378.678
												c-0.332-6.729-3.414-12.73-8.148-16.912l-1.869,11.809L598.147,378.678z"></path>
											
												<rect x="577.573" y="390.529" transform="matrix(0.6479 0.7617 -0.7617 0.6479 502.8937 -305.2867)" style="fill:none;stroke:#FFFFFF;stroke-width:5.5;stroke-miterlimit:10;" width="8.241" height="1.675"></rect>
											
												<rect x="585.408" y="370.509" transform="matrix(0.5552 0.8317 -0.8317 0.5552 572.6544 -320.7728)" style="fill:none;stroke:#FFFFFF;stroke-width:5.5;stroke-miterlimit:10;" width="1.674" height="9.056"></rect>
											
												<rect x="565.469" y="387.246" transform="matrix(0.7614 0.6483 -0.6483 0.7614 388.8444 -273.7487)" style="fill:none;stroke:#FFFFFF;stroke-width:5.5;stroke-miterlimit:10;" width="1.675" height="8.241"></rect>
											
												<rect x="557.223" y="374.2" transform="matrix(0.8321 0.5547 -0.5547 0.8321 302.3791 -248.616)" style="fill:none;stroke:#FFFFFF;stroke-width:5.5;stroke-miterlimit:10;" width="9.056" height="1.674"></rect>
											<rect x="572.317" y="357.069" style="fill:none;stroke:#FFFFFF;stroke-width:6;stroke-miterlimit:10;" width="2" height="17"></rect>
										</g>
										<g>
											<circle style="fill:#009D92;" cx="574" cy="379.889" r="26.847"></circle>
											<path style="fill:#FFF0DC;" d="M595.302,391.209l0.033,0.063c1.812-3.392,2.844-7.268,2.844-11.384
												c0-0.406-0.012-0.811-0.031-1.211l-10.018-5.104l1.869-11.809c-1.918-1.697-4.109-3.094-6.502-4.117l-9.496,6.902l-9.5-6.902
												c-2.393,1.025-4.592,2.427-6.514,4.128l1.865,11.798l-10,5.096c-0.02,0.405-0.029,0.81-0.029,1.219
												c0,4.111,1.025,7.981,2.836,11.37l0.025-0.05l12.152,1.924l1.537,9.707c2.398,0.796,4.961,1.227,7.627,1.227
												c2.658,0,5.215-0.429,7.609-1.222l1.537-9.712L595.302,391.209z M567.847,389.069l-3.801-11.559l9.955-7.16l9.953,7.124
												l-3.801,11.595H567.847z"></path>
											<g>
												<defs>
													<path id="SVGID_11_" d="M595.302,391.209l0.033,0.063c1.812-3.392,2.844-7.268,2.844-11.384c0-0.406-0.012-0.811-0.031-1.211
														l-10.018-5.104l1.869-11.809c-1.918-1.697-4.109-3.094-6.502-4.117l-9.496,6.902l-9.5-6.902
														c-2.393,1.025-4.592,2.427-6.514,4.128l1.865,11.798l-10,5.096c-0.02,0.405-0.029,0.81-0.029,1.219
														c0,4.111,1.025,7.981,2.836,11.37l0.025-0.05l12.152,1.924l1.537,9.707c2.398,0.796,4.961,1.227,7.627,1.227
														c2.658,0,5.215-0.429,7.609-1.222l1.537-9.712L595.302,391.209z M567.847,389.069l-3.801-11.559l9.955-7.16l9.953,7.124
														l-3.801,11.595H567.847z"></path>
												</defs>
												<clipPath id="SVGID_12_">
													<use xlink:href="#SVGID_11_" style="overflow:visible;"></use>
												</clipPath>
												<g style="clip-path:url(#SVGID_12_);">
													<path style="fill:#DDD5BB;" d="M608.136,384.068c0-2.626-2.131-4.999-4.754-4.999h-12.969c-2.627,0-4.756,2.373-4.756,4.999
														l0,0c0,2.625,2.129,5.001,4.756,5.001h12.969C606.005,389.069,608.136,386.693,608.136,384.068L608.136,384.068z"></path>
													<path style="fill:#DDD5BB;" d="M607.317,390.851c0-2.088-1.693-3.781-3.781-3.781h-27.436c-2.09,0-3.783,1.693-3.783,3.781
														v0.438c0,2.088,1.693,3.781,3.783,3.781h27.436c2.088,0,3.781-1.693,3.781-3.781V390.851z"></path>
													<path style="fill:#DDD5BB;" d="M597.317,400.259c0-3.418-2.77-6.189-6.188-6.189h-37.623c-3.418,0-6.189,2.771-6.189,6.189
														v6.621c0,3.418,2.771,6.189,6.189,6.189h37.623c3.418,0,6.188-2.771,6.188-6.189V400.259z"></path>
													<path style="fill:#DDD5BB;" d="M610.317,376.748c0-3.418-2.832-6.679-6.248-6.679h-4.367c-3.418,0-6.385,3.261-6.385,6.679
														v3.248c0,3.418,2.967,6.073,6.385,6.073h4.367c3.416,0,6.248-2.655,6.248-6.073V376.748z"></path>
												</g>
											</g>
											<polygon style="fill:#009D92;" points="574.001,370.423 564.046,377.511 567.847,389.069 580.153,389.069 583.954,377.511 			"></polygon>
											<path style="fill:#009D92;" d="M583.497,357.648c-2.914-1.245-6.125-1.938-9.496-1.938c-3.375,0-6.584,0.692-9.5,1.938l9.5,6.902
												L583.497,357.648z"></path>
											<path style="fill:#009D92;" d="M552.685,391.209l-0.025,0.05c2.895,5.424,7.799,9.614,13.715,11.581l-1.537-9.707
												L552.685,391.209z"></path>
											<path style="fill:#009D92;" d="M557.987,361.776c-4.723,4.179-7.801,10.176-8.135,16.894l10-5.096L557.987,361.776z"></path>
											<path style="fill:#009D92;" d="M595.335,391.272l-0.033-0.063l-12.154,1.924l-1.537,9.712
												C587.528,400.883,592.433,396.694,595.335,391.272z"></path>
											<path style="fill:#009D92;" d="M598.147,378.678c-0.332-6.729-3.414-12.73-8.148-16.912l-1.869,11.809L598.147,378.678z"></path>
											
												<line style="fill:none;stroke:#009D92;stroke-width:1.6747;stroke-miterlimit:10;" x1="584.362" y1="394.505" x2="579.022" y2="388.228"></line>
											
												<line style="fill:none;stroke:#009D92;stroke-width:1.6747;stroke-miterlimit:10;" x1="582.478" y1="377.549" x2="590.013" y2="372.525"></line>
												<line style="fill:none;stroke:#009D92;stroke-width:1.6747;stroke-miterlimit:10;" x1="563.636" y1="394.505" x2="568.976" y2="388.228"></line>
												<line style="fill:none;stroke:#009D92;stroke-width:1.6747;stroke-miterlimit:10;" x1="565.519" y1="377.549" x2="557.983" y2="372.525"></line>
												<line style="fill:none;stroke:#009D92;stroke-width:2;stroke-miterlimit:10;" x1="573.317" y1="374.069" x2="573.317" y2="357.069"></line>
										</g>
									</g>
								</g>
								<g id="bat">
									<g>
										<path style="fill:none;stroke:#FFFFFF;stroke-width:5.5;stroke-miterlimit:10;" d="M233.516,466.817l-58.635-142.015
											c-0.34-0.841-0.738-1.587-1.146-2.197l-0.123-0.295l2.104-0.777c1.574-0.581,2.383-2.33,1.801-3.906
											c-0.584-1.576-2.332-2.38-3.906-1.801l-8.152,3.011c-1.578,0.584-2.381,2.332-1.801,3.907c0.58,1.576,2.332,2.38,3.906,1.801
											l1.686-0.623c0.062,0.804,0.254,1.751,0.584,2.744l47.467,146.138c0.811,2.43,3.412,3.681,5.814,2.794l7.793-2.876
											C233.309,471.834,234.475,469.191,233.516,466.817z"></path>
										<g>
											<g>
												<path style="fill:#B6A464;" d="M169.818,321.73c-0.803,0.295-0.797,2.506,0.014,4.936l47.467,146.138
													c0.811,2.43,3.412,3.681,5.814,2.794l7.793-2.876c2.402-0.888,3.568-3.53,2.609-5.904l-58.635-142.015
													c-0.961-2.375-2.387-4.06-3.189-3.765L169.818,321.73z"></path>
												<path style="fill:#B6A464;" d="M169.818,321.73c-0.803,0.295-1.111-1.7-0.303,0.729l47.783,150.345
													c0.811,2.43,3.412,3.681,5.814,2.794l7.793-2.876c2.402-0.888,3.568-3.53,2.609-5.904L173.047,320.95
													c-0.961-2.374-0.553-0.207-1.355,0.088L169.818,321.73z"></path>
											</g>
											<path style="fill:#B6A464;" d="M167.562,324.545c-1.574,0.579-3.326-0.225-3.906-1.801l0,0c-0.58-1.575,0.223-3.323,1.801-3.907
												l8.152-3.011c1.574-0.579,3.322,0.225,3.906,1.801l0,0c0.582,1.576-0.227,3.325-1.801,3.906L167.562,324.545z"></path>
											<rect x="215.713" y="463.821" transform="matrix(0.3439 0.939 -0.939 0.3439 583.0187 98.2339)" style="fill:#84644F;" width="11.001" height="5"></rect>
											<polygon style="fill:#84644F;" points="219.262,453.724 195.736,393.017 194.045,393.735 214.566,455.442 			"></polygon>
											<rect x="170.332" y="333.537" transform="matrix(0.3438 0.939 -0.939 0.3438 429.3301 55.1914)" style="fill:#DDD5BB;" width="9.686" height="2.5"></rect>
											<rect x="164.858" y="319.923" transform="matrix(0.939 -0.3438 0.3438 0.939 -100.2202 77.0948)" style="fill:#DDD5BB;" width="4.886" height="2.501"></rect>
											<rect x="177.22" y="345.515" transform="matrix(0.3441 0.9389 -0.9389 0.3441 443.3575 58.8415)" style="fill:#DDD5BB;" width="4.682" height="2.5"></rect>
										</g>
									</g>
								</g>
								<g id="magazines">
									<g>
										<polygon style="fill:none;stroke:#FFFFFF;stroke-width:5.5;stroke-linejoin:round;stroke-miterlimit:10;" points="
											340.605,411.302 340.605,405.302 329.605,405.302 329.605,402.302 332.605,402.302 332.605,399.302 329.605,399.302 
											329.605,392.302 338.605,392.302 338.605,386.302 306.605,386.302 261.605,386.302 261.605,392.302 259.605,392.302 
											259.605,399.302 255.605,399.302 255.605,402.302 254.605,402.302 254.605,405.302 263.605,405.302 263.605,411.302 
											261.605,411.302 261.605,418.302 257.605,418.302 257.605,421.302 256.605,421.302 256.605,424.302 317.605,424.302 
											331.605,424.302 331.605,421.302 334.605,421.302 334.605,418.302 331.605,418.302 331.605,411.302 		"></polygon>
										<g>
											<g>
												<rect x="256.605" y="421.302" style="fill:#C5AD3C;" width="61" height="3"></rect>
												<rect x="317.605" y="421.302" style="fill:#FFF0DC;" width="14" height="3"></rect>
												<rect x="257.605" y="418.302" style="fill:#E87525;" width="45" height="3"></rect>
												<rect x="302.605" y="418.302" style="fill:#FFF0DC;" width="32" height="3"></rect>
												<rect x="261.605" y="411.302" style="fill:#437C3B;" width="62" height="7"></rect>
												<rect x="308.605" y="411.302" style="fill:#DDD5BB;" width="23" height="7"></rect>
												<rect x="263.605" y="405.302" style="fill:#9B2A14;" width="45" height="6"></rect>
												<rect x="308.605" y="405.302" style="fill:#FFF0DC;" width="32" height="6"></rect>
											</g>
											<g>
												<rect x="254.605" y="402.302" style="fill:#C5AD3C;" width="61" height="3"></rect>
												<rect x="315.605" y="402.302" style="fill:#FFF0DC;" width="14" height="3"></rect>
												<rect x="255.605" y="399.302" style="fill:#E87525;" width="45" height="3"></rect>
												<rect x="300.605" y="399.302" style="fill:#FFF0DC;" width="32" height="3"></rect>
												<rect x="259.605" y="392.302" style="fill:#437C3B;" width="62" height="7"></rect>
												<rect x="306.605" y="392.302" style="fill:#DDD5BB;" width="23" height="7"></rect>
												<rect x="261.605" y="386.302" style="fill:#9B2A14;" width="45" height="6"></rect>
												<rect x="306.605" y="386.302" style="fill:#FFF0DC;" width="32" height="6"></rect>
											</g>
										</g>
										<g>
											<path style="fill:none;stroke:#FFFFFF;stroke-width:5.5;stroke-linejoin:round;stroke-miterlimit:10;" d="M341.02,358.439
												l-1.553-1.261l-27.975,34.459c-1.625,2.003-1.527,4.704,0.475,6.33l0.725,0.588l2.879,2.338l36.482,29.616
												c2.662,2.161,6.535,1.804,8.697-0.858c1.902-2.346,1.781-5.619-0.092-7.845c1.146,0.363,2.469-0.163,3.295-1.181l21.107-25.998
												l0.33,0.006l-0.859-3.446l-42.25-34.302L341.02,358.439z"></path>
											<g>
												<g>
													<path style="fill:#CA3A22;" d="M315.57,400.894l-3.604-2.926c-2.002-1.626-2.1-4.327-0.475-6.33l27.975-34.459l16.682,13.542
														l-20,43.962"></path>
													<path style="fill:#FFFFFF;" d="M385.391,394.634l-0.859-3.446l-42.25-34.302l-24.441,30.106c0,0,4.338,5.4,11.049,6.568"></path>
													<path style="fill:#E87525;" d="M359.803,420.964c2.662,2.161,3.109,6.024,0.947,8.688c-2.162,2.662-6.035,3.02-8.697,0.858
														l-39.361-31.954c2.334,1.895,5.721,1.587,7.615-0.747c1.893-2.332,1.518-5.734-0.814-7.629
														c-0.691-0.561-1.486-0.911-2.301-1.086l1.078-2.104"></path>
													<path style="fill:#DDD5BB;" d="M359.625,421.2l-41.668-33.826c1.266,1.027,3.045,0.482,4.072-0.782l21.32-26.262l41.924,34.034
														l-21.32,26.262c-1.027,1.265-2.824,1.795-4.09,0.769"></path>
												</g>
													<rect x="321.089" y="375.882" transform="matrix(0.6303 -0.7764 0.7764 0.6303 -168.5433 400.8483)" style="fill:#4C3829;" width="31.001" height="3"></rect>
												<g>
													<rect x="330.221" y="389.059" transform="matrix(0.6303 -0.7764 0.7764 0.6303 -178.3175 404.681)" style="fill:#4C3829;" width="11.001" height="1"></rect>
													<rect x="332.55" y="390.949" transform="matrix(0.6302 -0.7764 0.7764 0.6302 -178.9232 407.2299)" style="fill:#4C3829;" width="10.999" height="1.001"></rect>
													<rect x="335.267" y="393.656" transform="matrix(0.6303 -0.7763 0.7763 0.6303 -179.6337 410.0843)" style="fill:#4C3829;" width="11" height="0"></rect>
													<rect x="338.762" y="395.991" transform="matrix(0.6303 -0.7763 0.7763 0.6303 -180.5436 413.8454)" style="fill:#4C3829;" width="11" height="1.001"></rect>
													<rect x="341.09" y="397.882" transform="matrix(0.6303 -0.7764 0.7764 0.6303 -181.149 416.3819)" style="fill:#4C3829;" width="11.001" height="1"></rect>
													<rect x="343.419" y="399.773" transform="matrix(0.6303 -0.7764 0.7764 0.6303 -181.7564 418.8895)" style="fill:#4C3829;" width="11.001" height="1.001"></rect>
												</g>
												<g>
													<rect x="341.121" y="376.249" transform="matrix(0.6303 -0.7763 0.7763 0.6303 -164.5294 407.9797)" style="fill:#4C3829;" width="9.999" height="1"></rect>
													<rect x="343.45" y="378.14" transform="matrix(0.6304 -0.7763 0.7763 0.6304 -165.1393 410.4407)" style="fill:#4C3829;" width="10.001" height="1"></rect>
													<rect x="346.167" y="380.846" transform="matrix(0.6303 -0.7764 0.7764 0.6303 -165.8428 413.4435)" style="fill:#4C3829;" width="10" height="0"></rect>
													<rect x="349.662" y="383.181" transform="matrix(0.6303 -0.7763 0.7763 0.6303 -166.7547 417.1726)" style="fill:#4C3829;" width="9.999" height="1.001"></rect>
													<rect x="351.99" y="385.073" transform="matrix(0.6303 -0.7764 0.7764 0.6303 -167.3597 419.7122)" style="fill:#4C3829;" width="10" height="0.999"></rect>
													<rect x="354.32" y="386.964" transform="matrix(0.6303 -0.7763 0.7763 0.6303 -167.9689 422.1871)" style="fill:#4C3829;" width="9.999" height="1.001"></rect>
												</g>
												<g>
													<rect x="346.914" y="403.109" transform="matrix(0.6303 -0.7764 0.7764 0.6303 -182.6663 422.6509)" style="fill:#4C3829;" width="11.001" height="0"></rect>
													<rect x="349.631" y="404.816" transform="matrix(0.6304 -0.7763 0.7763 0.6304 -183.3772 425.5157)" style="fill:#4C3829;" width="11" height="1.001"></rect>
													<rect x="351.96" y="406.707" transform="matrix(0.6303 -0.7763 0.7763 0.6303 -183.9828 428.053)" style="fill:#4C3829;" width="11" height="1"></rect>
													<rect x="355.453" y="410.042" transform="matrix(0.6303 -0.7763 0.7763 0.6303 -184.8931 431.8133)" style="fill:#4C3829;" width="11" height="0"></rect>
													<rect x="359.095" y="413.69" transform="matrix(0.6302 -0.7764 0.7764 0.6302 -187.6887 434.2832)" style="fill:#4C3829;" width="6" height="1"></rect>
												</g>
											</g>
										</g>
										<g>
											<path style="fill:#FFFFFF;" d="M335.82,465.289c-0.525,0-0.934-0.026-1.164-0.045h-42.73c-1.658,0-3-1.343-3-3v-50.911
												c0-1.657,1.342-3,3-3h40.078c2.17-4.121,6.449-6.765,11.24-6.765c0.48,0,36.283,0.113,36.283,0.113
												c0.795,0.003,1.557,0.321,2.117,0.886c0.562,0.564,0.875,1.329,0.873,2.125c0,0-0.041,11.438-0.09,22.876
												c-0.025,5.72-0.053,11.44-0.078,15.73c-0.014,2.148-0.025,3.939-0.037,5.193c-0.01,0.989-0.021,2.088-0.301,2.997
												c-0.172,2.938-0.49,4.862-2.92,4.99v2.055c0,1.657-1.342,3-3,3h-31.463C342.926,463.946,339.836,465.289,335.82,465.289z
												 M294.926,459.244h39.867c0.111,0,0.221,0.006,0.33,0.019c0.043,0.004,0.309,0.026,0.697,0.026c0.842,0,3.627-0.122,4.133-1.682
												c0.402-1.236,1.555-2.073,2.854-2.073h30.285v-2.048c0-1.646,1.324-2.98,2.965-3c0.004-0.071,0.008-0.143,0.012-0.213
												c0.018-0.362,0.102-0.706,0.236-1.022c0.057-4.862,0.145-25.821,0.201-41.579c-8.621-0.027-32.867-0.104-33.262-0.104
												c-2.936,0-5.508,1.879-6.398,4.676c-0.396,1.244-1.553,2.089-2.857,2.089h-39.062V459.244z"></path>
											<path style="fill:#437C3B;" d="M375.904,409.9H336.59v44.662l-1.984-0.717v-42.977h-42.869v50.911h42.869
												c0,0,6.572,0.729,8.014-3.71h33.285V409.9z"></path>
											<g>
												<path style="fill:#F2EEE2;" d="M340.598,456.313c0-2.37,2.768-3.291,6.182-3.291h31.857c0.08,0,0.158,0.007,0.238,0.009v-31.757
													H344.01c-0.461-0.047-0.928-0.079-1.406-0.079c-5.367,0-9.719,3.021-9.719,6.745v31.837
													C338.605,459.677,340.598,458.684,340.598,456.313z"></path>
												<rect x="293.523" y="410.869" style="fill:#DDD5BB;" width="39.73" height="48.808"></rect>
												<path style="fill:#DDD5BB;" d="M338.051,456.147c0-3.415,2.768-6.183,6.182-6.183h34.857c0.08,0,0.158,0.009,0.238,0.012
													v-45.759h-34.865c-0.461-0.067-0.928-0.113-1.406-0.113c-5.367,0-9.719,4.352-9.719,9.719v45.875
													C334.879,459.857,338.051,459.562,338.051,456.147z"></path>
												<g>
													<rect x="345.064" y="411.672" style="fill:#4C3829;" width="26.338" height="2"></rect>
													<rect x="345.064" y="423.302" style="fill:#4C3829;" width="26.338" height="2"></rect>
													<rect x="345.064" y="434.932" style="fill:#4C3829;" width="12.395" height="2"></rect>
													<rect x="344.924" y="440.917" style="fill:#4C3829;" width="26.479" height="2"></rect>
													<rect x="345.064" y="417.5" style="fill:#4C3829;" width="9.254" height="2"></rect>
													<rect x="357.469" y="417.5" style="fill:#4C3829;" width="13.934" height="2"></rect>
													<rect x="345.064" y="428.965" style="fill:#4C3829;" width="16.568" height="2"></rect>
													<rect x="365.217" y="428.965" style="fill:#4C3829;" width="6.186" height="2"></rect>
												</g>
												<g>
													<line style="fill:none;stroke:#4C3829;stroke-width:2;stroke-miterlimit:10;" x1="305.736" y1="419.5" x2="322.605" y2="419.5"></line>
													<line style="fill:none;stroke:#4C3829;stroke-width:2;stroke-miterlimit:10;" x1="305.736" y1="424.683" x2="310.361" y2="424.683"></line>
													<line style="fill:none;stroke:#4C3829;stroke-width:2;stroke-miterlimit:10;" x1="313.293" y1="424.712" x2="322.605" y2="424.712"></line>
													<line style="fill:none;stroke:#4C3829;stroke-width:2;stroke-miterlimit:10;" x1="305.736" y1="429.358" x2="309.875" y2="429.358"></line>
													<line style="fill:none;stroke:#4C3829;stroke-width:2;stroke-miterlimit:10;" x1="312.535" y1="429.358" x2="316.674" y2="429.358"></line>
													<line style="fill:none;stroke:#4C3829;stroke-width:2;stroke-miterlimit:10;" x1="318.467" y1="429.358" x2="322.605" y2="429.358"></line>
												</g>
												<g>
													<line style="fill:none;stroke:#4C3829;stroke-width:2;stroke-miterlimit:10;" x1="306.17" y1="439.501" x2="323.039" y2="439.501"></line>
													<line style="fill:none;stroke:#4C3829;stroke-width:2;stroke-miterlimit:10;" x1="306.17" y1="444.684" x2="310.795" y2="444.684"></line>
													<line style="fill:none;stroke:#4C3829;stroke-width:2;stroke-miterlimit:10;" x1="313.727" y1="444.713" x2="323.039" y2="444.713"></line>
													<line style="fill:none;stroke:#4C3829;stroke-width:2;stroke-miterlimit:10;" x1="306.17" y1="449.359" x2="310.309" y2="449.359"></line>
													<line style="fill:none;stroke:#4C3829;stroke-width:2;stroke-miterlimit:10;" x1="312.969" y1="449.359" x2="317.107" y2="449.359"></line>
													<line style="fill:none;stroke:#4C3829;stroke-width:2;stroke-miterlimit:10;" x1="318.9" y1="449.359" x2="323.039" y2="449.359"></line>
												</g>
											</g>
										</g>
									</g>
								</g>
								<g id="dog">
									<g>
										<g>
											<g>
												<path style="fill:none;stroke:#FFFFFF;stroke-width:5.5;stroke-miterlimit:10;" d="M455.895,433.87
													c0,4.167-3.379,7.545-7.545,7.545h-0.986c-4.168,0-7.545-3.378-7.545-7.545v-15.826c0-4.166,3.377-7.544,7.545-7.544h0.986
													c4.166,0,7.545,3.378,7.545,7.544V433.87z"></path>
												<path style="fill:none;stroke:#FFFFFF;stroke-width:5.5;stroke-miterlimit:10;" d="M445.598,451.677
													c0,0,0.941-9.588,5.973-12.103c5.029-2.515-4.088-5.657-4.088-5.657l-5.973,5.028l-0.314,10.373"></path>
												<path style="fill:none;stroke:#FFFFFF;stroke-width:5.5;stroke-miterlimit:10;" d="M444.764,451.308
													c0,2.049-1.66,3.709-3.709,3.709l0,0c-2.049,0-3.709-1.66-3.709-3.709v-13.603c0-2.05,1.66-3.71,3.709-3.71l0,0
													c2.049,0,3.709,1.66,3.709,3.71V451.308z"></path>
												<path style="fill:none;stroke:#FFFFFF;stroke-width:5.5;stroke-miterlimit:10;" d="M452.184,451.979
													c0-1.736-1.408-3.145-3.145-3.145h-7.312c-1.736,0-3.145,1.408-3.145,3.145v1.13c0,1.737,1.408,3.146,3.145,3.146h7.312
													c1.736,0,3.145-1.408,3.145-3.146V451.979z"></path>
												<path style="fill:none;stroke:#FFFFFF;stroke-width:5.5;stroke-miterlimit:10;" d="M429.926,461.2
													c0,2.049-1.66,3.709-3.711,3.709l0,0c-2.049,0-3.709-1.66-3.709-3.709v-13.603c0-2.05,1.66-3.71,3.709-3.71l0,0
													c2.051,0,3.711,1.66,3.711,3.71V461.2z"></path>
												<path style="fill:none;stroke:#FFFFFF;stroke-width:5.5;stroke-miterlimit:10;" d="M437.346,463.106
													c0-1.736-1.408-3.144-3.145-3.144h-7.314c-1.736,0-3.145,1.407-3.145,3.144v1.133c0,1.736,1.408,3.144,3.145,3.144h7.314
													c1.736,0,3.145-1.407,3.145-3.144V463.106z"></path>
												<path style="fill:none;stroke:#FFFFFF;stroke-width:5.5;stroke-miterlimit:10;" d="M442.291,443.762
													c0,4.168-3.377,7.546-7.543,7.546h-0.988c-4.166,0-7.545-3.378-7.545-7.546v-15.824c0-4.167,3.379-7.545,7.545-7.545h0.988
													c4.166,0,7.543,3.378,7.543,7.545V443.762z"></path>
												<path style="fill:none;stroke:#FFFFFF;stroke-width:5.5;stroke-miterlimit:10;" d="M431.139,461.735
													c0,0,0.943-9.588,5.971-12.104c5.029-2.513-4.086-5.657-4.086-5.657l-5.973,5.029l-0.314,10.374"></path>
												<polygon style="fill:none;stroke:#FFFFFF;stroke-width:5.5;stroke-miterlimit:10;" points="486.775,441.327 435.539,436.706 
													437.424,398.134 493.377,398.134 				"></polygon>
												<path style="fill:none;stroke:#FFFFFF;stroke-width:5.5;stroke-miterlimit:10;" d="M531.326,409.312
													c0,4.071-3.301,7.371-7.371,7.371h-0.098c-4.072,0-7.371-3.3-7.371-7.371V389.43c0-4.071,3.299-7.371,7.371-7.371h0.098
													c4.07,0,7.371,3.3,7.371,7.371V409.312z"></path>
												<g>
													<path style="fill:none;stroke:#FFFFFF;stroke-width:5.5;stroke-miterlimit:10;" d="M496.52,382.05h-19.488
														c-2.074,0-3.35,1.645-2.832,3.653l4.717,18.351"></path>
												</g>
												<g>
													<path style="fill:none;stroke:#FFFFFF;stroke-width:5.5;stroke-miterlimit:10;" d="M505.951,382.05h19.488
														c2.076,0,3.35,1.644,2.834,3.653l-4.721,18.351"></path>
												</g>
												<path style="fill:none;stroke:#FFFFFF;stroke-width:5.5;stroke-miterlimit:10;" d="M507.83,453.214
													c0-1.736-1.406-3.144-3.143-3.144h-7.316c-1.736,0-3.143,1.407-3.143,3.144v1.133c0,1.736,1.406,3.144,3.143,3.144h7.316
													c1.736,0,3.143-1.407,3.143-3.144V453.214z"></path>
												<path style="fill:none;stroke:#FFFFFF;stroke-width:5.5;stroke-miterlimit:10;" d="M500.41,452.775
													c0,1.911-1.293,3.459-3.201,3.459l0,0c-1.91,0-3.33-1.548-3.33-3.459l-9.053-23.889c0-1.909,10.439-3.458,12.35-3.458l0,0
													c1.91,0,3.234,1.549,3.234,3.458V452.775z"></path>
												<circle style="fill:none;stroke:#FFFFFF;stroke-width:5.5;stroke-miterlimit:10;" cx="491.49" cy="419.771" r="22.004"></circle>
												<path style="fill:none;stroke:#FFFFFF;stroke-width:5.5;stroke-miterlimit:10;" d="M471.969,416.683
													c0,2.731-2.215,4.946-4.945,4.946l0,0c-2.732,0-4.947-2.215-4.947-4.946v-12.365c0-2.732,2.215-4.947,4.947-4.947l0,0
													c2.73,0,4.945,2.215,4.945,4.947V416.683z"></path>
												<circle style="fill:none;stroke:#FFFFFF;stroke-width:5.5;stroke-miterlimit:10;" cx="493.974" cy="409.964" r="22.382"></circle>
												<circle style="fill:none;stroke:#FFFFFF;stroke-width:5.5;stroke-miterlimit:10;" cx="439.153" cy="417.099" r="19.331"></circle>
												<path style="fill:none;stroke:#FFFFFF;stroke-width:5.5;stroke-miterlimit:10;" d="M496.701,463.106
													c0-1.736-1.406-3.144-3.143-3.144h-7.316c-1.736,0-3.143,1.407-3.143,3.144v1.133c0,1.736,1.406,3.144,3.143,3.144h7.316
													c1.736,0,3.143-1.407,3.143-3.144V463.106z"></path>
												<path style="fill:none;stroke:#FFFFFF;stroke-width:5.5;stroke-miterlimit:10;" d="M489.281,463.463
													c0,1.91-1.387,3.459-3.295,3.459l0,0c-1.91,0-3.379-1.549-3.379-3.459l-9.076-23.889c0-1.909,10.525-3.457,12.434-3.457l0,0
													c1.908,0,3.316,1.548,3.316,3.457V463.463z"></path>
												<g>
													<path style="fill:none;stroke:#FFFFFF;stroke-width:5.5;stroke-miterlimit:10;" d="M421.275,412.812
														c-0.914-7.082,2.244-14.382,8.684-18.435c7.07-4.451,16.406-2.328,20.855,4.741c3.561,5.655,1.863,13.127-3.795,16.687
														c-4.521,2.849-10.498,1.489-13.348-3.034c-2.277-3.619-1.191-8.401,2.43-10.679c0.723-0.457,1.504-0.743,2.299-0.874"></path>
													<path style="fill:none;stroke:#FFFFFF;stroke-width:5.5;stroke-miterlimit:10;" d="M441.885,418.555
														c-0.812,0-1.631-0.092-2.445-0.276c-2.848-0.647-5.273-2.366-6.83-4.838c-1.281-2.035-1.693-4.446-1.16-6.791
														c0.533-2.346,1.947-4.342,3.982-5.622c0.846-0.533,1.777-0.888,2.766-1.05c0.684-0.116,1.332,0.352,1.443,1.037
														c0.113,0.686-0.352,1.332-1.035,1.443c-0.656,0.107-1.271,0.342-1.832,0.697c-1.469,0.923-2.488,2.362-2.873,4.052
														c-0.383,1.689-0.086,3.427,0.836,4.893c1.199,1.905,3.068,3.228,5.262,3.728c2.195,0.496,4.449,0.111,6.352-1.086
														c2.451-1.543,4.156-3.948,4.799-6.772s0.146-5.729-1.398-8.181c-1.973-3.135-5.049-5.312-8.658-6.135
														c-3.613-0.82-7.328-0.186-10.463,1.788c-5.803,3.651-8.984,10.407-8.105,17.209c0.088,0.688-0.398,1.319-1.088,1.408
														c-0.693,0.077-1.318-0.398-1.408-1.087c-1.002-7.77,2.633-15.486,9.26-19.658c3.705-2.332,8.092-3.083,12.361-2.112
														c4.268,0.97,7.9,3.544,10.23,7.247c1.902,3.019,2.512,6.598,1.723,10.077c-0.791,3.48-2.893,6.442-5.91,8.344
														C445.924,417.981,443.924,418.555,441.885,418.555z"></path>
												</g>
												<circle style="fill:none;stroke:#FFFFFF;stroke-width:5.5;stroke-miterlimit:10;" cx="500.292" cy="404.054" r="22.632"></circle>
												<circle style="fill:none;stroke:#FFFFFF;stroke-width:5.5;stroke-miterlimit:10;" cx="501.079" cy="406.411" r="5.187"></circle>
												<circle style="fill:none;stroke:#FFFFFF;stroke-width:5.5;stroke-miterlimit:10;" cx="494.163" cy="413.955" r="5.187"></circle>
												<circle style="fill:none;stroke:#FFFFFF;stroke-width:5.5;stroke-miterlimit:10;" cx="507.993" cy="413.955" r="5.187"></circle>
												<polygon style="fill:none;stroke:#FFFFFF;stroke-width:5.5;stroke-miterlimit:10;" points="489.527,412.548 497.424,403.114 
													505.932,404.37 511.285,410.976 507.994,419.156 494.006,419.156 				"></polygon>
												<circle style="fill:none;stroke:#FFFFFF;stroke-width:5.5;stroke-miterlimit:10;" cx="490.391" cy="399.809" r="5.814"></circle>
												<circle style="fill:none;stroke:#FFFFFF;stroke-width:5.5;stroke-miterlimit:10;" cx="490.233" cy="400.595" r="1.886"></circle>
												<circle style="fill:none;stroke:#FFFFFF;stroke-width:5.5;stroke-miterlimit:10;" cx="490.233" cy="400.438" r="1.104"></circle>
												<circle style="fill:none;stroke:#FFFFFF;stroke-width:5.5;stroke-miterlimit:10;" cx="510.352" cy="400.438" r="1.105"></circle>
												<circle style="fill:none;stroke:#FFFFFF;stroke-width:5.5;stroke-miterlimit:10;" cx="511.138" cy="399.809" r="5.815"></circle>
												<circle style="fill:none;stroke:#FFFFFF;stroke-width:5.5;stroke-miterlimit:10;" cx="510.979" cy="400.595" r="1.886"></circle>
												<path style="fill:none;stroke:#FFFFFF;stroke-width:5.5;stroke-miterlimit:10;" d="M496.701,415.446v7.737
													c0,2.258,2.07,4.086,4.328,4.086s4.328-1.828,4.328-4.086v-7.737H496.701z"></path>
												<path style="fill:none;stroke:#FFFFFF;stroke-width:5.5;stroke-miterlimit:10;" d="M483.1,409.312
													c0,4.071-3.301,7.371-7.373,7.371h-0.096c-4.07,0-7.371-3.3-7.371-7.371V389.43c0-4.071,3.301-7.371,7.371-7.371h0.096
													c4.072,0,7.373,3.3,7.373,7.371V409.312z"></path>
												<circle style="fill:none;stroke:#FFFFFF;stroke-width:5.5;stroke-miterlimit:10;" cx="510.979" cy="400.438" r="1.104"></circle>
											</g>
											<path style="fill:none;stroke:#FFFFFF;stroke-width:5.5;stroke-miterlimit:10;" d="M432.398,438.323
												c0,1.023-0.83,1.854-1.855,1.854l0,0c-1.023,0-1.854-0.831-1.854-1.854v-3.71c0-1.024,0.83-1.854,1.854-1.854l0,0
												c1.025,0,1.855,0.83,1.855,1.854V438.323z"></path>
											<path style="fill:none;stroke:#FFFFFF;stroke-width:5.5;stroke-miterlimit:10;" d="M474.443,404.317
												c0,0.684-0.555,1.236-1.238,1.236l0,0c-0.682,0-1.236-0.553-1.236-1.236v-14.84c0-0.684,0.555-1.236,1.236-1.236l0,0
												c0.684,0,1.238,0.553,1.238,1.236V404.317z"></path>
											<path style="fill:none;stroke:#FFFFFF;stroke-width:5.5;stroke-miterlimit:10;" d="M528.357,385.769
												c0,0.93-0.754,1.236-1.682,1.236h-6.727c-0.93,0-1.682-0.307-1.682-1.236l0,0c0-0.928,0.752-1.237,1.682-1.237h6.727
												C527.604,384.531,528.357,384.841,528.357,385.769L528.357,385.769z"></path>
											<path style="fill:none;stroke:#FFFFFF;stroke-width:5.5;stroke-miterlimit:10;" d="M486.809,454.398
												c0,0.342-0.277,0.618-0.619,0.618l0,0c-0.342,0-0.617-0.276-0.617-0.618V443.27c0-0.342,0.275-0.618,0.617-0.618l0,0
												c0.342,0,0.619,0.276,0.619,0.618V454.398z"></path>
											<path style="fill:none;stroke:#FFFFFF;stroke-width:5.5;stroke-miterlimit:10;" d="M495.465,461.819
												c0,0.341-0.277,0.617-0.617,0.617h-3.713c-0.34,0-0.617-0.276-0.617-0.617v-0.002c0-0.341,0.277-0.617,0.617-0.617h3.713
												c0.34,0,0.617,0.276,0.617,0.617V461.819z"></path>
											<path style="fill:none;stroke:#FFFFFF;stroke-width:5.5;stroke-miterlimit:10;" d="M429.926,452.544
												c0-0.684-0.553-1.236-1.236-1.236l0,0c-0.684,0-1.236,0.553-1.236,1.236v9.893c0,0.684,0.553,1.236,1.236,1.236l0,0
												c0.684,0,1.236-0.553,1.236-1.236V452.544z"></path>
											<path style="fill:none;stroke:#FFFFFF;stroke-width:5.5;stroke-miterlimit:10;" d="M433.635,463.055
												c0,0.342-0.275,0.618-0.617,0.618h-4.947c-0.342,0-0.617-0.276-0.617-0.618l0,0c0-0.342,0.275-0.618,0.617-0.618h4.947
												C433.359,462.437,433.635,462.713,433.635,463.055L433.635,463.055z"></path>
											<path style="fill:none;stroke:#FFFFFF;stroke-width:5.5;stroke-miterlimit:10;" d="M480.625,433.608
												c0,1.58-1.279,2.859-2.859,2.859h-33.852c-1.58,0-2.859-1.279-2.859-2.859v-0.464c0-1.579,1.279-2.859,2.859-2.859h33.852
												c1.58,0,2.859,1.28,2.859,2.859V433.608z"></path>
											<path style="fill:none;stroke:#FFFFFF;stroke-width:5.5;stroke-miterlimit:10;" d="M504.121,405.841
												c0,1.208-0.98,2.186-2.188,2.186h-1.809c-1.207,0-2.188-0.978-2.188-2.186v-0.574c0-1.208,0.98-2.187,2.188-2.187h1.809
												c1.207,0,2.188,0.979,2.188,2.187V405.841z"></path>
											<path style="fill:none;stroke:#FFFFFF;stroke-width:5.5;stroke-miterlimit:10;" d="M481.861,443.331
												c0,0.99-0.803,1.793-1.793,1.793h-0.123c-0.99,0-1.793-0.803-1.793-1.793v-1.359c0-0.99,0.803-1.794,1.793-1.794h0.123
												c0.99,0,1.793,0.804,1.793,1.794V443.331z"></path>
											<path style="fill:none;stroke:#FFFFFF;stroke-width:5.5;stroke-miterlimit:10;" d="M428.689,446.36
												c0,0.684-0.553,1.237-1.236,1.237h-1.238c-0.682,0-1.236-0.554-1.236-1.237l0,0c0-0.683,0.555-1.236,1.236-1.236h1.238
												C428.137,445.124,428.689,445.678,428.689,446.36L428.689,446.36z"></path>
											<path style="fill:none;stroke:#FFFFFF;stroke-width:5.5;stroke-miterlimit:10;" d="M441.055,446.593
												c0,1.237-1.004,2.241-2.24,2.241h-0.465c-1.238,0-2.24-1.004-2.24-2.241v-0.464c0-1.237,1.002-2.241,2.24-2.241h0.465
												c1.236,0,2.24,1.004,2.24,2.241V446.593z"></path>
											<path style="fill:none;stroke:#FFFFFF;stroke-width:5.5;stroke-miterlimit:10;" d="M507.277,385.149
												c0,0.928-0.754,1.855-1.682,1.855h-10.875c-0.928,0-1.682-0.928-1.682-1.855l0,0c0-0.93,0.754-1.854,1.682-1.854h10.875
												C506.523,383.295,507.277,384.22,507.277,385.149L507.277,385.149z"></path>
											<path style="fill:none;stroke:#FFFFFF;stroke-width:5.5;stroke-miterlimit:10;" d="M505.357,390.715
												c0,0.684-0.553,1.236-1.236,1.236h-7.42c-0.684,0-1.236-0.553-1.236-1.236l0,0c0-0.684,0.553-1.237,1.236-1.237h7.42
												C504.805,389.478,505.357,390.031,505.357,390.715L505.357,390.715z"></path>
											<path style="fill:none;stroke:#FFFFFF;stroke-width:5.5;stroke-miterlimit:10;" d="M497.439,451.042
												c0.154,0.492-0.225,1.047-0.846,1.238l-0.115,0.035c-0.621,0.192-1.248-0.051-1.4-0.545l-2.346-7.586
												c-0.152-0.494,0.229-1.048,0.85-1.24l0.115-0.035c0.619-0.191,1.246,0.051,1.398,0.545L497.439,451.042z"></path>
											<path style="fill:none;stroke:#FFFFFF;stroke-width:5.5;stroke-miterlimit:10;" d="M501.646,422.247
												c0,0.342-0.275,0.619-0.617,0.619l0,0c-0.342,0-0.619-0.277-0.619-0.619v-6.183c0-0.342,0.277-0.618,0.619-0.618l0,0
												c0.342,0,0.617,0.276,0.617,0.618V422.247z"></path>
											<path style="fill:none;stroke:#FFFFFF;stroke-width:5.5;stroke-miterlimit:10;" d="M492.707,416.712
												c-0.014,0-0.025,0-0.041-0.001c-0.34-0.016-0.604-0.306-0.586-0.647c0.016-0.341,0.271-0.644,0.646-0.587
												c0.043-0.019,0.119-0.03,0.197-0.03h13.738c2.008,0,3.641-1.634,3.641-3.643c0-0.342,0.277-0.651,0.619-0.651
												s0.619,0.242,0.619,0.584v0.067c0,2.691-2.189,4.879-4.879,4.879h-13.738C492.887,416.695,492.805,416.712,492.707,416.712z"></path>
											<circle style="fill:none;stroke:#FFFFFF;stroke-width:5.5;stroke-miterlimit:10;" cx="478.414" cy="419.555" r="2.41"></circle>
											<circle style="fill:none;stroke:#FFFFFF;stroke-width:5.5;stroke-miterlimit:10;" cx="484.597" cy="425.737" r="2.409"></circle>
											<circle style="fill:none;stroke:#FFFFFF;stroke-width:5.5;stroke-miterlimit:10;" cx="492.017" cy="428.211" r="2.409"></circle>
										</g>
										<g>
											<g>
												<path style="fill:#84644F;" d="M455.895,433.87c0,4.167-3.379,7.545-7.545,7.545h-0.986c-4.168,0-7.545-3.378-7.545-7.545
													v-15.826c0-4.166,3.377-7.544,7.545-7.544h0.986c4.166,0,7.545,3.378,7.545,7.544V433.87z"></path>
												<path style="fill:#84644F;" d="M445.598,451.677c0,0,0.941-9.588,5.973-12.103c5.029-2.515-4.088-5.657-4.088-5.657
													l-5.973,5.028l-0.314,10.373"></path>
												<path style="fill:#84644F;" d="M444.764,451.308c0,2.049-1.66,3.709-3.709,3.709l0,0c-2.049,0-3.709-1.66-3.709-3.709v-13.603
													c0-2.05,1.66-3.71,3.709-3.71l0,0c2.049,0,3.709,1.66,3.709,3.71V451.308z"></path>
												<path style="fill:#84644F;" d="M452.184,451.979c0-1.736-1.408-3.145-3.145-3.145h-7.312c-1.736,0-3.145,1.408-3.145,3.145v1.13
													c0,1.737,1.408,3.146,3.145,3.146h7.312c1.736,0,3.145-1.408,3.145-3.146V451.979z"></path>
												<path style="fill:#4C3829;" d="M429.926,461.2c0,2.049-1.66,3.709-3.711,3.709l0,0c-2.049,0-3.709-1.66-3.709-3.709v-13.603
													c0-2.05,1.66-3.71,3.709-3.71l0,0c2.051,0,3.711,1.66,3.711,3.71V461.2z"></path>
												<path style="fill:#4C3829;" d="M437.346,463.106c0-1.736-1.408-3.144-3.145-3.144h-7.314c-1.736,0-3.145,1.407-3.145,3.144
													v1.133c0,1.736,1.408,3.144,3.145,3.144h7.314c1.736,0,3.145-1.407,3.145-3.144V463.106z"></path>
												<path style="fill:#4C3829;" d="M442.291,443.762c0,4.168-3.377,7.546-7.543,7.546h-0.988c-4.166,0-7.545-3.378-7.545-7.546
													v-15.824c0-4.167,3.379-7.545,7.545-7.545h0.988c4.166,0,7.543,3.378,7.543,7.545V443.762z"></path>
												<path style="fill:#4C3829;" d="M431.139,461.735c0,0,0.943-9.588,5.971-12.104c5.029-2.513-4.086-5.657-4.086-5.657
													l-5.973,5.029l-0.314,10.374"></path>
												<polygon style="fill:#4C3829;" points="486.775,441.327 435.539,436.706 437.424,398.134 493.377,398.134 				"></polygon>
												<path style="fill:#4C3829;" d="M531.326,409.312c0,4.071-3.301,7.371-7.371,7.371h-0.098c-4.072,0-7.371-3.3-7.371-7.371V389.43
													c0-4.071,3.299-7.371,7.371-7.371h0.098c4.07,0,7.371,3.3,7.371,7.371V409.312z"></path>
												<g>
													<path style="fill:#4C3829;" d="M496.52,382.05h-19.488c-2.074,0-3.35,1.645-2.832,3.653l4.717,18.351"></path>
												</g>
												<g>
													<path style="fill:#4C3829;" d="M505.951,382.05h19.488c2.076,0,3.35,1.644,2.834,3.653l-4.721,18.351"></path>
												</g>
												<path style="fill:#84644F;" d="M507.83,453.214c0-1.736-1.406-3.144-3.143-3.144h-7.316c-1.736,0-3.143,1.407-3.143,3.144v1.133
													c0,1.736,1.406,3.144,3.143,3.144h7.316c1.736,0,3.143-1.407,3.143-3.144V453.214z"></path>
												<path style="fill:#84644F;" d="M500.41,452.775c0,1.911-1.293,3.459-3.201,3.459l0,0c-1.91,0-3.33-1.548-3.33-3.459
													l-9.053-23.889c0-1.909,10.439-3.458,12.35-3.458l0,0c1.91,0,3.234,1.549,3.234,3.458V452.775z"></path>
												<circle style="fill:#4C3829;" cx="491.49" cy="419.771" r="22.004"></circle>
												<path style="fill:#402E20;" d="M471.969,416.683c0,2.731-2.215,4.946-4.945,4.946l0,0c-2.732,0-4.947-2.215-4.947-4.946v-12.365
													c0-2.732,2.215-4.947,4.947-4.947l0,0c2.73,0,4.945,2.215,4.945,4.947V416.683z"></path>
												<circle style="fill:#DDD5BB;" cx="493.974" cy="409.964" r="22.382"></circle>
												<circle style="fill:#4C3829;" cx="439.153" cy="417.099" r="19.331"></circle>
												<path style="fill:#4C3829;" d="M496.701,463.106c0-1.736-1.406-3.144-3.143-3.144h-7.316c-1.736,0-3.143,1.407-3.143,3.144
													v1.133c0,1.736,1.406,3.144,3.143,3.144h7.316c1.736,0,3.143-1.407,3.143-3.144V463.106z"></path>
												<path style="fill:#4C3829;" d="M489.281,463.463c0,1.91-1.387,3.459-3.295,3.459l0,0c-1.91,0-3.379-1.549-3.379-3.459
													l-9.076-23.889c0-1.909,10.525-3.457,12.434-3.457l0,0c1.908,0,3.316,1.548,3.316,3.457V463.463z"></path>
												<path style="fill:#4C3829;stroke:#84644F;stroke-width:2.5147;stroke-linecap:round;stroke-miterlimit:10;" d="M421.275,412.812
													c-0.914-7.082,2.244-14.382,8.684-18.435c7.07-4.451,16.406-2.328,20.855,4.741c3.561,5.655,1.863,13.127-3.795,16.687
													c-4.521,2.849-10.498,1.489-13.348-3.034c-2.277-3.619-1.191-8.401,2.43-10.679c0.723-0.457,1.504-0.743,2.299-0.874"></path>
												<circle style="fill:#84644F;" cx="500.292" cy="404.054" r="22.632"></circle>
												<circle style="fill:#4C3829;" cx="501.079" cy="406.411" r="5.187"></circle>
												<circle style="fill:#4C3829;" cx="494.163" cy="413.955" r="5.187"></circle>
												<circle style="fill:#4C3829;" cx="507.993" cy="413.955" r="5.187"></circle>
												<polygon style="fill:#4C3829;" points="489.527,412.548 497.424,403.114 505.932,404.37 511.285,410.976 507.994,419.156 
													494.006,419.156 				"></polygon>
												<circle style="fill:#4C3829;" cx="490.391" cy="399.809" r="5.814"></circle>
												<circle style="fill:#FFF0DC;" cx="490.233" cy="400.595" r="1.886"></circle>
												<circle style="fill:#4C3829;" cx="490.233" cy="400.438" r="1.104"></circle>
												<circle style="fill:#4C3829;" cx="510.352" cy="400.438" r="1.105"></circle>
												<circle style="fill:#4C3829;" cx="511.138" cy="399.809" r="5.815"></circle>
												<circle style="fill:#FFF0DC;" cx="510.979" cy="400.595" r="1.886"></circle>
												<path style="fill:#CA3A22;" d="M496.701,415.446v7.737c0,2.258,2.07,4.086,4.328,4.086s4.328-1.828,4.328-4.086v-7.737H496.701z
													"></path>
												<path style="fill:#4C3829;" d="M483.1,409.312c0,4.071-3.301,7.371-7.373,7.371h-0.096c-4.07,0-7.371-3.3-7.371-7.371V389.43
													c0-4.071,3.301-7.371,7.371-7.371h0.096c4.072,0,7.373,3.3,7.373,7.371V409.312z"></path>
												<circle style="fill:#4C3829;" cx="510.979" cy="400.438" r="1.104"></circle>
											</g>
											<path style="fill:#84644F;" d="M432.398,438.323c0,1.023-0.83,1.854-1.855,1.854l0,0c-1.023,0-1.854-0.831-1.854-1.854v-3.71
												c0-1.024,0.83-1.854,1.854-1.854l0,0c1.025,0,1.855,0.83,1.855,1.854V438.323z"></path>
											<path style="fill:#84644F;" d="M474.443,404.317c0,0.684-0.555,1.236-1.238,1.236l0,0c-0.682,0-1.236-0.553-1.236-1.236v-14.84
												c0-0.684,0.555-1.236,1.236-1.236l0,0c0.684,0,1.238,0.553,1.238,1.236V404.317z"></path>
											<path style="fill:#84644F;" d="M528.357,385.769c0,0.93-0.754,1.236-1.682,1.236h-6.727c-0.93,0-1.682-0.307-1.682-1.236l0,0
												c0-0.928,0.752-1.237,1.682-1.237h6.727C527.604,384.531,528.357,384.841,528.357,385.769L528.357,385.769z"></path>
											<path style="fill:#84644F;" d="M486.809,454.398c0,0.342-0.277,0.618-0.619,0.618l0,0c-0.342,0-0.617-0.276-0.617-0.618V443.27
												c0-0.342,0.275-0.618,0.617-0.618l0,0c0.342,0,0.619,0.276,0.619,0.618V454.398z"></path>
											<path style="fill:#84644F;" d="M495.465,461.819c0,0.341-0.277,0.617-0.617,0.617h-3.713c-0.34,0-0.617-0.276-0.617-0.617v-0.002
												c0-0.341,0.277-0.617,0.617-0.617h3.713c0.34,0,0.617,0.276,0.617,0.617V461.819z"></path>
											<path style="fill:#84644F;" d="M429.926,452.544c0-0.684-0.553-1.236-1.236-1.236l0,0c-0.684,0-1.236,0.553-1.236,1.236v9.893
												c0,0.684,0.553,1.236,1.236,1.236l0,0c0.684,0,1.236-0.553,1.236-1.236V452.544z"></path>
											<path style="fill:#84644F;" d="M433.635,463.055c0,0.342-0.275,0.618-0.617,0.618h-4.947c-0.342,0-0.617-0.276-0.617-0.618l0,0
												c0-0.342,0.275-0.618,0.617-0.618h4.947C433.359,462.437,433.635,462.713,433.635,463.055L433.635,463.055z"></path>
											<path style="fill:#402E20;" d="M480.625,433.608c0,1.58-1.279,2.859-2.859,2.859h-33.852c-1.58,0-2.859-1.279-2.859-2.859v-0.464
												c0-1.579,1.279-2.859,2.859-2.859h33.852c1.58,0,2.859,1.28,2.859,2.859V433.608z"></path>
											<path style="fill:#402E20;" d="M504.121,405.841c0,1.208-0.98,2.186-2.188,2.186h-1.809c-1.207,0-2.188-0.978-2.188-2.186v-0.574
												c0-1.208,0.98-2.187,2.188-2.187h1.809c1.207,0,2.188,0.979,2.188,2.187V405.841z"></path>
											<path style="fill:#402E20;" d="M481.861,443.331c0,0.99-0.803,1.793-1.793,1.793h-0.123c-0.99,0-1.793-0.803-1.793-1.793v-1.359
												c0-0.99,0.803-1.794,1.793-1.794h0.123c0.99,0,1.793,0.804,1.793,1.794V443.331z"></path>
											<path style="fill:#402E20;" d="M428.689,446.36c0,0.684-0.553,1.237-1.236,1.237h-1.238c-0.682,0-1.236-0.554-1.236-1.237l0,0
												c0-0.683,0.555-1.236,1.236-1.236h1.238C428.137,445.124,428.689,445.678,428.689,446.36L428.689,446.36z"></path>
											<path style="fill:#402E20;" d="M441.055,446.593c0,1.237-1.004,2.241-2.24,2.241h-0.465c-1.238,0-2.24-1.004-2.24-2.241v-0.464
												c0-1.237,1.002-2.241,2.24-2.241h0.465c1.236,0,2.24,1.004,2.24,2.241V446.593z"></path>
											<path style="fill:#4C3829;" d="M507.277,385.149c0,0.928-0.754,1.855-1.682,1.855h-10.875c-0.928,0-1.682-0.928-1.682-1.855l0,0
												c0-0.93,0.754-1.854,1.682-1.854h10.875C506.523,383.295,507.277,384.22,507.277,385.149L507.277,385.149z"></path>
											<path style="fill:#4C3829;" d="M505.357,390.715c0,0.684-0.553,1.236-1.236,1.236h-7.42c-0.684,0-1.236-0.553-1.236-1.236l0,0
												c0-0.684,0.553-1.237,1.236-1.237h7.42C504.805,389.478,505.357,390.031,505.357,390.715L505.357,390.715z"></path>
											<path style="fill:#402E20;" d="M497.439,451.042c0.154,0.492-0.225,1.047-0.846,1.238l-0.115,0.035
												c-0.621,0.192-1.248-0.051-1.4-0.545l-2.346-7.586c-0.152-0.494,0.229-1.048,0.85-1.24l0.115-0.035
												c0.619-0.191,1.246,0.051,1.398,0.545L497.439,451.042z"></path>
											<path style="fill:#402E20;" d="M501.646,422.247c0,0.342-0.275,0.619-0.617,0.619l0,0c-0.342,0-0.619-0.277-0.619-0.619v-6.183
												c0-0.342,0.277-0.618,0.619-0.618l0,0c0.342,0,0.617,0.276,0.617,0.618V422.247z"></path>
											<path style="fill:none;stroke:#402E20;stroke-width:1.2366;stroke-linecap:round;stroke-miterlimit:10;" d="M510.922,411.736
												v0.067c0,2.353-1.908,4.261-4.26,4.261h-13.738c-0.076,0-0.152,0.032-0.227,0.029"></path>
											<circle style="fill:#402E20;" cx="478.414" cy="419.555" r="2.41"></circle>
											<circle style="fill:#402E20;" cx="484.597" cy="425.737" r="2.409"></circle>
											<circle style="fill:#402E20;" cx="492.017" cy="428.211" r="2.409"></circle>
										</g>
									</g>
								</g>
								<g id="hoodie">
									<g>
										<g>
											<g>
												<ellipse style="fill:none;stroke:#FFFFFF;stroke-width:8;stroke-miterlimit:10;" cx="456.467" cy="264.178" rx="14.235" ry="10.639"></ellipse>
												<path style="fill:none;stroke:#FFFFFF;stroke-width:8;stroke-miterlimit:10;" d="M449.58,268.896l-2.755-3.604l2.296-1.716
													l-2.985-2.918c0,0-3.903-6.693,14.005-6.179l0.229-2.401c0,0-11.249-0.515-19.055,1.028c-7.808,1.546-6.66,6.007-6.66,6.007
													s-5.508,3.09-0.228,5.663c0,0-7.118,3.433-2.985,7.378"></path>
												<path style="fill:none;stroke:#FFFFFF;stroke-width:8;stroke-miterlimit:10;" d="M461.059,268.896l2.755-3.604l-2.296-1.716
													l2.985-2.918c0,0,3.902-6.693-14.005-6.179l-0.229-2.401c0,0,11.249-0.515,19.055,1.028c7.807,1.546,6.658,6.007,6.658,6.007
													s5.51,3.09,0.23,5.663c0,0,7.117,3.433,2.984,7.378"></path>
												<g>
													<path style="fill:none;stroke:#FFFFFF;stroke-width:8;stroke-miterlimit:10;" d="M454.819,259.503c-0.276,0-0.5-0.224-0.5-0.5
														v-5.731c0-0.276,0.224-0.5,0.5-0.5c2.983,0,4.047-2.022,4.047-3.915c0-2.194-1.672-3.914-3.806-3.914
														c-2.185,0-3.962,1.771-3.962,3.948c0,0.108-0.024,0.204-0.044,0.281c0.02,0.275-0.196,0.526-0.472,0.545
														c-0.251,0.017-0.521-0.177-0.541-0.452c-0.009-0.132,0.021-0.252,0.043-0.339c0.014-2.764,2.239-4.983,4.976-4.983
														c2.694,0,4.806,2.158,4.806,4.914c0,2.774-1.807,4.689-4.547,4.896v5.25C455.319,259.279,455.096,259.503,454.819,259.503z"></path>
													<path style="fill:none;stroke:#FFFFFF;stroke-width:8;stroke-miterlimit:10;" d="M479.443,279.003
														c-0.005,0.001-0.013,0.001-0.02,0h-49.21c-0.211,0-0.398-0.132-0.471-0.33c-0.071-0.198-0.011-0.42,0.151-0.555l24.605-20.465
														c0.184-0.154,0.455-0.154,0.639,0l24.53,20.403c0.163,0.082,0.274,0.251,0.274,0.446
														C479.943,278.779,479.72,279.003,479.443,279.003z M431.597,278.003h46.444l-23.222-19.314L431.597,278.003z"></path>
												</g>
												<path style="fill:none;stroke:#FFFFFF;stroke-width:8;stroke-miterlimit:10;" d="M455.319,268.503
													c0-2.282-1.851-4.133-4.133-4.133l-22.902,5.512c-2.282,0-3.965,1.851-3.965,4.132v76.108c0,2.281,1.512,4.881,3.795,4.881
													h23.072c2.282,0,4.133-2.6,4.133-4.881V268.503z"></path>
												<path style="fill:none;stroke:#FFFFFF;stroke-width:8;stroke-miterlimit:10;" d="M452.319,347.003c0,2.209-1.791,4-4,4l0,0
													c-2.209,0-4-1.791-4-4v-29c0-2.209,1.791-4,4-4l0,0c2.209,0,4,1.791,4,4V347.003z"></path>
												<g>
													<path style="fill:none;stroke:#FFFFFF;stroke-width:8;stroke-miterlimit:10;" d="M424.325,274.243l-19.004,74.45
														c-0.281,1.101,0.371,2.296,1.449,2.655l7.1,2.366c1.078,0.359,2.288-0.217,2.689-1.28l13.735-36.406"></path>
												</g>
												<path style="fill:none;stroke:#FFFFFF;stroke-width:8;stroke-miterlimit:10;" d="M423.929,337.3c-0.273,0-0.496-0.22-0.5-0.494
													c-0.221-17.923,3.588-39.613,3.836-41.002l-1.83-19.218c-0.025-0.275,0.176-0.52,0.45-0.546c0.271-0.015,0.519,0.175,0.546,0.45
													l1.836,19.286c0.004,0.046,0.002,0.092-0.006,0.138c-0.041,0.223-4.059,22.546-3.832,40.88c0.003,0.275-0.218,0.502-0.494,0.506
													C423.933,337.3,423.931,337.3,423.929,337.3z"></path>
												<path style="fill:none;stroke:#FFFFFF;stroke-width:8;stroke-miterlimit:10;" d="M419.023,346.035
													c-0.051,0-0.104-0.008-0.155-0.024l-11.709-3.815c-0.262-0.086-0.405-0.368-0.32-0.631c0.086-0.262,0.365-0.405,0.631-0.32
													l11.709,3.815c0.262,0.086,0.405,0.368,0.32,0.631C419.43,345.901,419.234,346.035,419.023,346.035z"></path>
												<path style="fill:none;stroke:#FFFFFF;stroke-width:8;stroke-miterlimit:10;" d="M423.98,337.549c-0.1,0-0.2-0.029-0.288-0.091
													c-0.226-0.159-0.279-0.471-0.121-0.697l9.527-13.546c0.094-0.133,0.246-0.212,0.409-0.212h21.812c0.276,0,0.5,0.224,0.5,0.5
													s-0.224,0.5-0.5,0.5h-21.552l-9.378,13.334C424.292,337.475,424.138,337.549,423.98,337.549z"></path>
												<path style="fill:none;stroke:#FFFFFF;stroke-width:8;stroke-miterlimit:10;" d="M455.319,268.503
													c0-2.282,1.851-4.133,4.133-4.133l22.902,5.512c2.282,0,3.965,1.851,3.965,4.132v76.108c0,2.281-1.512,4.881-3.795,4.881
													h-23.072c-2.282,0-4.133-2.6-4.133-4.881V268.503z"></path>
												<path style="fill:none;stroke:#FFFFFF;stroke-width:8;stroke-miterlimit:10;" d="M488.319,320.503c0,1.381-1.119,2.5-2.5,2.5
													l0,0c-1.381,0-2.5-1.119-2.5-2.5v-30c0-1.381,1.119-2.5,2.5-2.5l0,0c1.381,0,2.5,1.119,2.5,2.5V320.503z"></path>
												<path style="fill:none;stroke:#FFFFFF;stroke-width:8;stroke-miterlimit:10;" d="M458.319,291.021
													c0,0.543-0.439,0.982-0.982,0.982h-0.035c-0.543,0-0.982-0.439-0.982-0.982v-15.035c0-0.543,0.439-0.982,0.982-0.982h0.035
													c0.543,0,0.982,0.439,0.982,0.982V291.021z"></path>
												<path style="fill:none;stroke:#FFFFFF;stroke-width:8;stroke-miterlimit:10;" d="M480.319,320.67
													c0,1.841-1.492,3.333-3.333,3.333l-0.334-1c-1.841,0-3.333-0.492-3.333-2.333v-25.334c0-1.841,1.492-3.333,3.333-3.333h0.334
													c1.841,0,3.333,1.492,3.333,3.333V320.67z"></path>
												<path style="fill:none;stroke:#FFFFFF;stroke-width:8;stroke-miterlimit:10;" d="M452.319,347.67
													c0,1.841-1.492,3.333-3.334,3.333h-17.332c-1.842,0-3.334-1.492-3.334-3.333v-0.334c0-1.841,1.492-3.333,3.334-3.333h17.332
													c1.842,0,3.334,1.492,3.334,3.333V347.67z"></path>
												<path style="fill:none;stroke:#FFFFFF;stroke-width:8;stroke-miterlimit:10;" d="M449.319,296.336
													c0-1.288-1.045-2.333-2.333-2.333h-11.334c-1.288,0-2.333,1.045-2.333,2.333v0.334c0,1.288,1.045,2.333,2.333,2.333h11.334
													c1.288,0,2.333-1.045,2.333-2.333V296.336z"></path>
												<path style="fill:none;stroke:#FFFFFF;stroke-width:8;stroke-miterlimit:10;" d="M423.319,303.003c0-1.104-0.896-2-2-2l0,0
													c-1.104,0-2,0.896-2,2v29c0,1.104,0.896,2,2,2l0,0c1.104,0,2-0.896,2-2V303.003z"></path>
												<path style="fill:none;stroke:#FFFFFF;stroke-width:8;stroke-miterlimit:10;" d="M493.319,301.003c0-1.104-0.896-2-2-2l0,0
													c-1.104,0-2,0.896-2,2v29c0,1.104,0.896,2,2,2l0,0c1.104,0,2-0.896,2-2V301.003z"></path>
												<g>
													<path style="fill:none;stroke:#FFFFFF;stroke-width:8;stroke-miterlimit:10;" d="M486.313,274.243l19.004,74.45
														c0.281,1.101-0.371,2.296-1.449,2.655l-7.1,2.366c-1.078,0.359-2.288-0.217-2.689-1.28l-13.734-36.406"></path>
												</g>
												<path style="fill:none;stroke:#FFFFFF;stroke-width:8;stroke-miterlimit:10;" d="M487.035,337.157c-0.002,0-0.004,0-0.006,0
													c-0.276-0.004-0.497-0.23-0.494-0.506c0.227-18.33-4.111-40.509-4.155-40.73c-0.01-0.047-0.012-0.096-0.008-0.145l1.836-19.286
													c0.027-0.275,0.28-0.462,0.546-0.45c0.274,0.026,0.476,0.271,0.45,0.546l-1.829,19.214c0.274,1.417,4.381,22.953,4.16,40.863
													C487.532,336.938,487.309,337.157,487.035,337.157z"></path>
												<path style="fill:none;stroke:#FFFFFF;stroke-width:8;stroke-miterlimit:10;" d="M491.778,346.167
													c-0.208,0-0.402-0.131-0.474-0.339c-0.089-0.262,0.051-0.545,0.312-0.635l11.973-4.079c0.261-0.086,0.545,0.051,0.635,0.312
													c0.089,0.262-0.051,0.545-0.312,0.635l-11.973,4.079C491.886,346.158,491.832,346.167,491.778,346.167z"></path>
												<path style="fill:none;stroke:#FFFFFF;stroke-width:8;stroke-miterlimit:10;" d="M486.658,337.549
													c-0.157,0-0.312-0.074-0.409-0.212l-9.379-13.334h-21.551c-0.276,0-0.5-0.224-0.5-0.5s0.224-0.5,0.5-0.5h21.811
													c0.163,0,0.315,0.079,0.409,0.212l9.528,13.546c0.158,0.227,0.104,0.538-0.121,0.697
													C486.858,337.52,486.758,337.549,486.658,337.549z"></path>
												<rect x="454.319" y="265.003" style="fill:none;stroke:#FFFFFF;stroke-width:8;stroke-miterlimit:10;" width="1" height="87"></rect>
												<path style="fill:none;stroke:#FFFFFF;stroke-width:8;stroke-miterlimit:10;" d="M436.494,268.197
													c-0.222,0-0.425-0.148-0.483-0.373c-0.07-0.267,0.089-0.54,0.356-0.61l14.135-3.712c0.269-0.073,0.54,0.089,0.61,0.356
													c0.07,0.267-0.089,0.54-0.356,0.61l-14.135,3.712C436.578,268.192,436.536,268.197,436.494,268.197z"></path>
												<path style="fill:none;stroke:#FFFFFF;stroke-width:8;stroke-miterlimit:10;" d="M472.629,268.197
													c-0.042,0-0.084-0.005-0.127-0.017l-14.135-3.712c-0.268-0.07-0.427-0.344-0.356-0.61c0.069-0.268,0.342-0.43,0.61-0.356
													l14.135,3.712c0.268,0.07,0.427,0.344,0.356,0.61C473.054,268.049,472.851,268.197,472.629,268.197z"></path>
											</g>
											<g>
												<ellipse style="fill:none;stroke:#9B2A14;stroke-width:3;stroke-miterlimit:10;" cx="456.467" cy="264.178" rx="14.235" ry="10.639"></ellipse>
												<path style="fill:none;stroke:#9B2A14;stroke-width:3;stroke-miterlimit:10;" d="M449.58,268.896l-2.755-3.604l2.296-1.716
													l-2.985-2.918c0,0-3.903-6.693,14.005-6.179l0.229-2.401c0,0-11.249-0.515-19.055,1.028c-7.808,1.546-6.66,6.007-6.66,6.007
													s-5.508,3.09-0.228,5.663c0,0-7.118,3.433-2.985,7.378"></path>
												<path style="fill:none;stroke:#9B2A14;stroke-width:3;stroke-miterlimit:10;" d="M461.059,268.896l2.755-3.604l-2.296-1.716
													l2.985-2.918c0,0,3.902-6.693-14.005-6.179l-0.229-2.401c0,0,11.249-0.515,19.055,1.028c7.807,1.546,6.658,6.007,6.658,6.007
													s5.51,3.09,0.23,5.663c0,0,7.117,3.433,2.984,7.378"></path>
												<g>
													<path style="fill:none;stroke:#9B2A14;stroke-width:3;stroke-miterlimit:10;" d="M454.819,259.503c-0.276,0-0.5-0.224-0.5-0.5
														v-5.731c0-0.276,0.224-0.5,0.5-0.5c2.983,0,4.047-2.022,4.047-3.915c0-2.194-1.672-3.914-3.806-3.914
														c-2.185,0-3.962,1.771-3.962,3.948c0,0.108-0.024,0.204-0.044,0.281c0.02,0.275-0.196,0.526-0.472,0.545
														c-0.251,0.017-0.521-0.177-0.541-0.452c-0.009-0.132,0.021-0.252,0.043-0.339c0.014-2.764,2.239-4.983,4.976-4.983
														c2.694,0,4.806,2.158,4.806,4.914c0,2.774-1.807,4.689-4.547,4.896v5.25C455.319,259.279,455.096,259.503,454.819,259.503z"></path>
													<path style="fill:none;stroke:#9B2A14;stroke-width:3;stroke-miterlimit:10;" d="M479.443,279.003
														c-0.005,0.001-0.013,0.001-0.02,0h-49.21c-0.211,0-0.398-0.132-0.471-0.33c-0.071-0.198-0.011-0.42,0.151-0.555l24.605-20.465
														c0.184-0.154,0.455-0.154,0.639,0l24.53,20.403c0.163,0.082,0.274,0.251,0.274,0.446
														C479.943,278.779,479.72,279.003,479.443,279.003z M431.597,278.003h46.444l-23.222-19.314L431.597,278.003z"></path>
												</g>
												<path style="fill:none;stroke:#9B2A14;stroke-width:3;stroke-miterlimit:10;" d="M455.319,268.503
													c0-2.282-1.851-4.133-4.133-4.133l-22.902,5.512c-2.282,0-3.965,1.851-3.965,4.132v76.108c0,2.281,1.512,4.881,3.795,4.881
													h23.072c2.282,0,4.133-2.6,4.133-4.881V268.503z"></path>
												<path style="fill:none;stroke:#9B2A14;stroke-width:3;stroke-miterlimit:10;" d="M452.319,347.003c0,2.209-1.791,4-4,4l0,0
													c-2.209,0-4-1.791-4-4v-29c0-2.209,1.791-4,4-4l0,0c2.209,0,4,1.791,4,4V347.003z"></path>
												<g>
													<path style="fill:none;stroke:#9B2A14;stroke-width:3;stroke-miterlimit:10;" d="M424.325,274.243l-19.004,74.45
														c-0.281,1.101,0.371,2.296,1.449,2.655l7.1,2.366c1.078,0.359,2.288-0.217,2.689-1.28l13.735-36.406"></path>
												</g>
												<path style="fill:none;stroke:#9B2A14;stroke-width:3;stroke-miterlimit:10;" d="M423.929,337.3c-0.273,0-0.496-0.22-0.5-0.494
													c-0.221-17.923,3.588-39.613,3.836-41.002l-1.83-19.218c-0.025-0.275,0.176-0.52,0.45-0.546c0.271-0.015,0.519,0.175,0.546,0.45
													l1.836,19.286c0.004,0.046,0.002,0.092-0.006,0.138c-0.041,0.223-4.059,22.546-3.832,40.88c0.003,0.275-0.218,0.502-0.494,0.506
													C423.933,337.3,423.931,337.3,423.929,337.3z"></path>
												<path style="fill:none;stroke:#9B2A14;stroke-width:3;stroke-miterlimit:10;" d="M419.023,346.035
													c-0.051,0-0.104-0.008-0.155-0.024l-11.709-3.815c-0.262-0.086-0.405-0.368-0.32-0.631c0.086-0.262,0.365-0.405,0.631-0.32
													l11.709,3.815c0.262,0.086,0.405,0.368,0.32,0.631C419.43,345.901,419.234,346.035,419.023,346.035z"></path>
												<path style="fill:none;stroke:#9B2A14;stroke-width:3;stroke-miterlimit:10;" d="M423.98,337.549c-0.1,0-0.2-0.029-0.288-0.091
													c-0.226-0.159-0.279-0.471-0.121-0.697l9.527-13.546c0.094-0.133,0.246-0.212,0.409-0.212h21.812c0.276,0,0.5,0.224,0.5,0.5
													s-0.224,0.5-0.5,0.5h-21.552l-9.378,13.334C424.292,337.475,424.138,337.549,423.98,337.549z"></path>
												<path style="fill:none;stroke:#9B2A14;stroke-width:3;stroke-miterlimit:10;" d="M455.319,268.503
													c0-2.282,1.851-4.133,4.133-4.133l22.902,5.512c2.282,0,3.965,1.851,3.965,4.132v76.108c0,2.281-1.512,4.881-3.795,4.881
													h-23.072c-2.282,0-4.133-2.6-4.133-4.881V268.503z"></path>
												<path style="fill:none;stroke:#9B2A14;stroke-width:3;stroke-miterlimit:10;" d="M488.319,320.503c0,1.381-1.119,2.5-2.5,2.5
													l0,0c-1.381,0-2.5-1.119-2.5-2.5v-30c0-1.381,1.119-2.5,2.5-2.5l0,0c1.381,0,2.5,1.119,2.5,2.5V320.503z"></path>
												<path style="fill:none;stroke:#9B2A14;stroke-width:3;stroke-miterlimit:10;" d="M458.319,291.021
													c0,0.543-0.439,0.982-0.982,0.982h-0.035c-0.543,0-0.982-0.439-0.982-0.982v-15.035c0-0.543,0.439-0.982,0.982-0.982h0.035
													c0.543,0,0.982,0.439,0.982,0.982V291.021z"></path>
												<path style="fill:none;stroke:#9B2A14;stroke-width:3;stroke-miterlimit:10;" d="M480.319,320.67
													c0,1.841-1.492,3.333-3.333,3.333l-0.334-1c-1.841,0-3.333-0.492-3.333-2.333v-25.334c0-1.841,1.492-3.333,3.333-3.333h0.334
													c1.841,0,3.333,1.492,3.333,3.333V320.67z"></path>
												<path style="fill:none;stroke:#9B2A14;stroke-width:3;stroke-miterlimit:10;" d="M452.319,347.67
													c0,1.841-1.492,3.333-3.334,3.333h-17.332c-1.842,0-3.334-1.492-3.334-3.333v-0.334c0-1.841,1.492-3.333,3.334-3.333h17.332
													c1.842,0,3.334,1.492,3.334,3.333V347.67z"></path>
												<path style="fill:none;stroke:#9B2A14;stroke-width:3;stroke-miterlimit:10;" d="M449.319,296.336
													c0-1.288-1.045-2.333-2.333-2.333h-11.334c-1.288,0-2.333,1.045-2.333,2.333v0.334c0,1.288,1.045,2.333,2.333,2.333h11.334
													c1.288,0,2.333-1.045,2.333-2.333V296.336z"></path>
												<path style="fill:none;stroke:#9B2A14;stroke-width:3;stroke-miterlimit:10;" d="M423.319,303.003c0-1.104-0.896-2-2-2l0,0
													c-1.104,0-2,0.896-2,2v29c0,1.104,0.896,2,2,2l0,0c1.104,0,2-0.896,2-2V303.003z"></path>
												<path style="fill:none;stroke:#9B2A14;stroke-width:3;stroke-miterlimit:10;" d="M493.319,301.003c0-1.104-0.896-2-2-2l0,0
													c-1.104,0-2,0.896-2,2v29c0,1.104,0.896,2,2,2l0,0c1.104,0,2-0.896,2-2V301.003z"></path>
												<g>
													<path style="fill:none;stroke:#9B2A14;stroke-width:3;stroke-miterlimit:10;" d="M486.313,274.243l19.004,74.45
														c0.281,1.101-0.371,2.296-1.449,2.655l-7.1,2.366c-1.078,0.359-2.288-0.217-2.689-1.28l-13.734-36.406"></path>
												</g>
												<path style="fill:none;stroke:#9B2A14;stroke-width:3;stroke-miterlimit:10;" d="M487.035,337.157c-0.002,0-0.004,0-0.006,0
													c-0.276-0.004-0.497-0.23-0.494-0.506c0.227-18.33-4.111-40.509-4.155-40.73c-0.01-0.047-0.012-0.096-0.008-0.145l1.836-19.286
													c0.027-0.275,0.28-0.462,0.546-0.45c0.274,0.026,0.476,0.271,0.45,0.546l-1.829,19.214c0.274,1.417,4.381,22.953,4.16,40.863
													C487.532,336.938,487.309,337.157,487.035,337.157z"></path>
												<path style="fill:none;stroke:#9B2A14;stroke-width:3;stroke-miterlimit:10;" d="M491.778,346.167
													c-0.208,0-0.402-0.131-0.474-0.339c-0.089-0.262,0.051-0.545,0.312-0.635l11.973-4.079c0.261-0.086,0.545,0.051,0.635,0.312
													c0.089,0.262-0.051,0.545-0.312,0.635l-11.973,4.079C491.886,346.158,491.832,346.167,491.778,346.167z"></path>
												<path style="fill:none;stroke:#9B2A14;stroke-width:3;stroke-miterlimit:10;" d="M486.658,337.549
													c-0.157,0-0.312-0.074-0.409-0.212l-9.379-13.334h-21.551c-0.276,0-0.5-0.224-0.5-0.5s0.224-0.5,0.5-0.5h21.811
													c0.163,0,0.315,0.079,0.409,0.212l9.528,13.546c0.158,0.227,0.104,0.538-0.121,0.697
													C486.858,337.52,486.758,337.549,486.658,337.549z"></path>
												<rect x="454.319" y="265.003" style="fill:none;stroke:#9B2A14;stroke-width:3;stroke-miterlimit:10;" width="1" height="87"></rect>
												<path style="fill:none;stroke:#9B2A14;stroke-width:3;stroke-miterlimit:10;" d="M436.494,268.197
													c-0.222,0-0.425-0.148-0.483-0.373c-0.07-0.267,0.089-0.54,0.356-0.61l14.135-3.712c0.269-0.073,0.54,0.089,0.61,0.356
													c0.07,0.267-0.089,0.54-0.356,0.61l-14.135,3.712C436.578,268.192,436.536,268.197,436.494,268.197z"></path>
												<path style="fill:none;stroke:#9B2A14;stroke-width:3;stroke-miterlimit:10;" d="M472.629,268.197
													c-0.042,0-0.084-0.005-0.127-0.017l-14.135-3.712c-0.268-0.07-0.427-0.344-0.356-0.61c0.069-0.268,0.342-0.43,0.61-0.356
													l14.135,3.712c0.268,0.07,0.427,0.344,0.356,0.61C473.054,268.049,472.851,268.197,472.629,268.197z"></path>
											</g>
											<g>
												<ellipse style="fill:#9B2A14;" cx="456.467" cy="264.178" rx="14.235" ry="10.639"></ellipse>
												<path style="fill:#EB0029;" d="M449.58,268.896l-2.755-3.604l2.296-1.716l-2.985-2.918c0,0-3.903-6.693,14.005-6.179
													l0.229-2.401c0,0-11.249-0.515-19.055,1.028c-7.808,1.546-6.66,6.007-6.66,6.007s-5.508,3.09-0.228,5.663
													c0,0-7.118,3.433-2.985,7.378"></path>
												<path style="fill:#EB0029;" d="M461.059,268.896l2.755-3.604l-2.296-1.716l2.985-2.918c0,0,3.902-6.693-14.005-6.179
													l-0.229-2.401c0,0,11.249-0.515,19.055,1.028c7.807,1.546,6.658,6.007,6.658,6.007s5.51,3.09,0.23,5.663
													c0,0,7.117,3.433,2.984,7.378"></path>
												<g>
													<path style="fill:none;stroke:#999585;stroke-linecap:round;stroke-linejoin:round;stroke-miterlimit:10;" d="M450.541,249.229
														c-0.007-0.098,0.058-0.241,0.058-0.339c0-2.444,2.017-4.448,4.462-4.448c2.444,0,4.306,1.97,4.306,4.414
														c0,2.445-1.547,4.415-4.547,4.415v5.731"></path>
													<polygon style="fill:none;stroke:#999585;stroke-linecap:round;stroke-linejoin:round;stroke-miterlimit:10;" points="
														479.424,278.503 430.214,278.503 454.819,258.038 					"></polygon>
												</g>
												<path style="fill:#EB0029;" d="M455.319,268.503c0-2.282-1.851-4.133-4.133-4.133l-22.902,5.512
													c-2.282,0-3.965,1.851-3.965,4.132v76.108c0,2.281,1.512,4.881,3.795,4.881h23.072c2.282,0,4.133-2.6,4.133-4.881V268.503z"></path>
												<path style="fill:#CA3A22;" d="M452.319,347.003c0,2.209-1.791,4-4,4l0,0c-2.209,0-4-1.791-4-4v-29c0-2.209,1.791-4,4-4l0,0
													c2.209,0,4,1.791,4,4V347.003z"></path>
												<g>
													<path style="fill:#EB0029;" d="M424.325,274.243l-19.004,74.45c-0.281,1.101,0.371,2.296,1.449,2.655l7.1,2.366
														c1.078,0.359,2.288-0.217,2.689-1.28l13.735-36.406"></path>
												</g>
												<path style="fill:none;stroke:#9B2A14;stroke-linecap:round;stroke-linejoin:round;stroke-miterlimit:10;" d="M425.933,276.538
													l1.836,19.286c0,0-4.069,22.379-3.84,40.976"></path>
													<line style="fill:none;stroke:#9B2A14;stroke-linecap:round;stroke-linejoin:round;stroke-miterlimit:10;" x1="407.314" y1="341.72" x2="419.023" y2="345.535"></line>
												<polyline style="fill:none;stroke:#9B2A14;stroke-linecap:round;stroke-linejoin:round;stroke-miterlimit:10;" points="
													423.98,337.049 433.508,323.503 455.319,323.503 				"></polyline>
												<path style="fill:#EB0029;" d="M455.319,268.503c0-2.282,1.851-4.133,4.133-4.133l22.902,5.512c2.282,0,3.965,1.851,3.965,4.132
													v76.108c0,2.281-1.512,4.881-3.795,4.881h-23.072c-2.282,0-4.133-2.6-4.133-4.881V268.503z"></path>
												<path style="fill:#CA3A22;" d="M488.319,320.503c0,1.381-1.119,2.5-2.5,2.5l0,0c-1.381,0-2.5-1.119-2.5-2.5v-30
													c0-1.381,1.119-2.5,2.5-2.5l0,0c1.381,0,2.5,1.119,2.5,2.5V320.503z"></path>
												<path style="fill:#CA3A22;" d="M458.319,291.021c0,0.543-0.439,0.982-0.982,0.982h-0.035c-0.543,0-0.982-0.439-0.982-0.982
													v-15.035c0-0.543,0.439-0.982,0.982-0.982h0.035c0.543,0,0.982,0.439,0.982,0.982V291.021z"></path>
												<path style="fill:#CA3A22;" d="M480.319,320.67c0,1.841-1.492,3.333-3.333,3.333l-0.334-1c-1.841,0-3.333-0.492-3.333-2.333
													v-25.334c0-1.841,1.492-3.333,3.333-3.333h0.334c1.841,0,3.333,1.492,3.333,3.333V320.67z"></path>
												<path style="fill:#CA3A22;" d="M452.319,347.67c0,1.841-1.492,3.333-3.334,3.333h-17.332c-1.842,0-3.334-1.492-3.334-3.333
													v-0.334c0-1.841,1.492-3.333,3.334-3.333h17.332c1.842,0,3.334,1.492,3.334,3.333V347.67z"></path>
												<path style="fill:#CA3A22;" d="M449.319,296.336c0-1.288-1.045-2.333-2.333-2.333h-11.334c-1.288,0-2.333,1.045-2.333,2.333
													v0.334c0,1.288,1.045,2.333,2.333,2.333h11.334c1.288,0,2.333-1.045,2.333-2.333V296.336z"></path>
												<path style="fill:#CA3A22;" d="M423.319,303.003c0-1.104-0.896-2-2-2l0,0c-1.104,0-2,0.896-2,2v29c0,1.104,0.896,2,2,2l0,0
													c1.104,0,2-0.896,2-2V303.003z"></path>
												<path style="fill:#CA3A22;" d="M493.319,301.003c0-1.104-0.896-2-2-2l0,0c-1.104,0-2,0.896-2,2v29c0,1.104,0.896,2,2,2l0,0
													c1.104,0,2-0.896,2-2V301.003z"></path>
												<g>
													<path style="fill:#EB0029;" d="M486.313,274.243l19.004,74.45c0.281,1.101-0.371,2.296-1.449,2.655l-7.1,2.366 c-1.078,0.359-2.288-0.217-2.689-1.28l-13.734-36.406"></path>
												</g>
												<path style="fill:none;stroke:#9B2A14;stroke-linecap:round;stroke-linejoin:round;stroke-miterlimit:10;" d="M484.706,276.538 l-1.836,19.286c0,0,4.395,22.236,4.165,40.833"></path>
													<line style="fill:none;stroke:#9B2A14;stroke-linecap:round;stroke-linejoin:round;stroke-miterlimit:10;" x1="503.751" y1="341.588" x2="491.778" y2="345.667"></line>
												<polyline style="fill:none;stroke:#9B2A14;stroke-linecap:round;stroke-linejoin:round;stroke-miterlimit:10;" points="486.658,337.049 477.13,323.503 455.319,323.503"></polyline>
												<line style="fill:none;stroke:#9B2A14;stroke-linecap:round;stroke-linejoin:round;stroke-miterlimit:10;" x1="436.494" y1="267.697" x2="450.629" y2="263.985"></line>
												<line style="fill:none;stroke:#9B2A14;stroke-linecap:round;stroke-linejoin:round;stroke-miterlimit:10;" x1="472.629" y1="267.697" x2="458.494" y2="263.985"></line>
											</g>
											<path style="fill:#CA3A22;" d="M476.319,319.67c0,1.288-1.045,2.333-2.333,2.333h-13.334c-1.288,0-2.333-1.045-2.333-2.333 v-0.334c0-1.288,1.045-2.333,2.333-2.333h13.334c1.288,0,2.333,1.045,2.333,2.333V319.67z"></path>
										</g>
										<g>
											<g>
												<line style="fill:none;stroke:#9B2A14;stroke-width:2;stroke-miterlimit:10;" x1="444.819" y1="267.209" x2="444.819" y2="305.859"></line>
												<g>
													<circle style="fill:#9B2A14;" cx="444.819" cy="305.747" r="2.256"></circle>
												</g>
											</g>
										</g>
										<g>
											<g>
												<line style="fill:none;stroke:#9B2A14;stroke-width:2;stroke-miterlimit:10;" x1="463.819" y1="267.605" x2="463.819" y2="306.256"></line>
												<g>
													<circle style="fill:#9B2A14;" cx="463.819" cy="306.144" r="2.256"></circle>
												</g>
											</g>
										</g>
										<polygon style="fill:#EB0029;" points="441.319,273.026 449.319,270.083 447.919,265.842 438.916,268.958 		"></polygon>
										<polygon style="fill:#EB0029;" points="467.866,273.026 459.866,270.083 461.267,265.842 470.27,268.958 		"></polygon>
										
											<line style="fill:none;stroke:#9B2A14;stroke-linecap:round;stroke-linejoin:round;stroke-miterlimit:10;" x1="442.232" y1="272.69" x2="446.91" y2="270.969"></line>
										
											<line style="fill:none;stroke:#9B2A14;stroke-linecap:round;stroke-linejoin:round;stroke-miterlimit:10;" x1="461.636" y1="270.734" x2="466.953" y2="272.69"></line>
									</g>
								</g>
								</svg>